<svg width="30" height="28" viewBox="0 0 30 28" fill="none" xmlns="http://www.w3.org/2000/svg">
<path d="M8.28386 0.0613689C7.72058 0.189943 7.18792 0.496073 6.73485 0.955267C6.40423 1.28589 6.18381 1.62263 5.394 2.99409C4.8797 3.90023 4.41439 4.76964 4.36541 4.9227C4.23683 5.34516 4.29193 5.90232 4.51847 6.35539L4.70215 6.72275L3.99193 7.95951C3.6062 8.63299 3.22048 9.34321 3.14701 9.53301C2.77353 10.4453 2.87149 11.5963 3.40416 12.478C3.76539 13.0719 4.2001 13.4025 5.95728 14.4188L7.58589 15.3678L7.47568 15.5515C7.04098 16.274 6.92465 16.7026 7.02873 17.2536C7.06547 17.4618 7.1818 17.7618 7.27976 17.921L7.45731 18.2087L6.64913 19.623L5.84707 21.0374H4.80011H3.74702L3.71029 20.8782C3.6858 20.7863 3.496 20.5414 3.28783 20.3333C2.76129 19.8128 2.56536 19.7516 1.34085 19.7516H0.3796L0.1898 19.9292L0 20.1067V23.6639V27.2212L0.177555 27.4171L0.35511 27.6191H1.38983C2.40005 27.6191 2.42454 27.613 2.75516 27.4477C3.18375 27.2273 3.39804 27.0252 3.62457 26.6212L3.80825 26.3028H5.44298C6.86342 26.3028 7.14506 26.2844 7.54303 26.1865C8.38182 25.9722 9.15327 25.4701 9.63695 24.8272C9.79002 24.6252 10.3717 23.6517 10.9411 22.6598L11.9697 20.8537H12.3064C13.0656 20.8537 13.5677 20.5659 14.0207 19.8802C14.186 19.6292 14.333 19.4026 14.3452 19.3659C14.3513 19.3353 15.3555 19.8863 16.5616 20.5904C19.5188 22.317 19.2127 22.17 19.8678 22.17C20.327 22.17 20.4617 22.1455 20.6943 22.0231C21.0801 21.821 21.4046 21.4966 21.6556 21.0496C21.7719 20.8414 21.8821 20.67 21.9005 20.67C21.9189 20.67 22.0781 20.7557 22.2434 20.8598C22.6964 21.1353 22.9781 21.221 23.4801 21.221C23.8475 21.221 23.9822 21.1904 24.2944 21.0312C24.5026 20.9272 24.7597 20.7374 24.87 20.6088C25.1393 20.2965 26.8659 17.2658 26.9516 16.9597C26.9822 16.8311 27.0006 16.5128 26.9884 16.2617C26.9578 15.723 26.8108 15.3985 26.4435 15.0311C26.3088 14.8964 26.2047 14.7739 26.2169 14.7617C26.2292 14.7495 26.9333 14.4923 27.7843 14.1923C28.6537 13.8801 29.419 13.5739 29.5354 13.4821C30.0374 13.1025 30.1537 12.2514 29.7803 11.7188C29.5905 11.4433 29.5231 11.4004 21.3066 6.61866C20.076 5.90844 17.1188 4.18187 14.7371 2.79817C12.3493 1.40834 10.2431 0.214434 10.0533 0.153208C9.5941 -0.00597954 8.77367 -0.0488377 8.28386 0.0613689ZM9.61859 1.39609C9.94921 1.5063 28.6598 12.4229 28.6109 12.4719C28.5558 12.5208 24.7597 13.8739 24.674 13.8739C24.625 13.8739 23.7434 13.3658 17.0698 9.47791C14.5228 7.99624 14.1677 7.83093 13.6534 7.89216C13.5003 7.91053 12.8207 8.1187 12.1533 8.35748C11.4799 8.59626 10.8737 8.79218 10.8064 8.79218C10.69 8.79218 9.67981 8.22278 6.77771 6.52682C6.26341 6.22682 5.79197 5.91456 5.73074 5.82885C5.49808 5.52272 5.55319 5.36965 6.49607 3.71655C6.97975 2.86551 7.46956 2.06346 7.57976 1.93488C7.68997 1.80631 7.94712 1.61651 8.15529 1.51242C8.46754 1.35324 8.60224 1.32262 8.96959 1.32262C9.2145 1.32262 9.50226 1.35324 9.61859 1.39609ZM7.85528 8.67585C10.3288 10.1208 10.2859 10.1024 10.9227 10.0596C11.3329 10.0351 11.6145 9.95547 12.5391 9.62485C13.1574 9.40444 13.7268 9.22076 13.8126 9.22076C13.8983 9.22076 14.0513 9.26362 14.1615 9.32485C14.4616 9.47791 23.5965 14.7984 23.6454 14.8413C23.6638 14.8658 22.9352 16.1944 22.0168 17.7924C20.4984 20.4557 20.3331 20.7129 20.1249 20.8108C19.9413 20.9027 19.8617 20.9149 19.7147 20.8659C19.6168 20.8292 18.3433 20.1067 16.8861 19.2557C15.4289 18.4108 13.2309 17.1311 12.0003 16.4148C10.7696 15.6985 8.69408 14.4862 7.37772 13.7209C6.06748 12.9555 4.89807 12.2453 4.78786 12.1412C4.31642 11.6882 4.09601 10.7881 4.30418 10.1698C4.46949 9.68608 5.75523 7.49419 5.85319 7.53093C5.90217 7.5493 6.8022 8.06359 7.85528 8.67585ZM25.1883 15.7352C25.372 15.8515 25.5618 16.0107 25.6169 16.0842C25.819 16.3719 25.7516 16.5434 24.8148 18.1842C23.8965 19.8006 23.7863 19.9353 23.4373 19.9353C23.2842 19.9353 22.574 19.5618 22.5801 19.4883C22.5801 19.4332 24.8148 15.527 24.8455 15.527C24.8577 15.527 25.0108 15.6189 25.1883 15.7352ZM10.439 17.0271C11.1798 17.4556 12.1105 18.0006 12.5084 18.2332L13.2309 18.6557L13.0656 18.9434C12.7289 19.5312 12.4472 19.6781 12.0554 19.47C11.3452 19.1087 8.57775 17.4556 8.46754 17.3271C8.26549 17.1005 8.28386 16.7699 8.51652 16.3536L8.70632 16.0168L8.90224 16.1332C9.00633 16.1944 9.69818 16.5985 10.439 17.0271ZM9.73491 19.6598C10.2921 19.9843 10.7574 20.2598 10.7696 20.272C10.7819 20.2843 10.3411 21.0863 9.79002 22.0537C8.66346 24.0252 8.3757 24.4048 7.75732 24.7109C7.21241 24.9742 6.88179 25.017 5.32053 25.017H3.91846V23.7007V22.3843H5.13073C6.19606 22.3843 6.36137 22.3721 6.52056 22.268C6.66138 22.1884 6.94302 21.7476 7.62262 20.5598C8.36346 19.2557 8.54713 18.974 8.62673 19.0169C8.68183 19.0414 9.17776 19.3353 9.73491 19.6598ZM2.39393 21.27L2.57149 21.4659V23.6946V25.9232L2.38169 26.113C2.20413 26.2905 2.1674 26.3028 1.73882 26.3028H1.28574V23.6639V21.0251L1.75106 21.0496C2.18576 21.068 2.22862 21.0863 2.39393 21.27Z" fill="#E4F2F6"/>
</svg>
