<svg width="24" height="25" viewBox="0 0 24 25" fill="none" xmlns="http://www.w3.org/2000/svg">
<path d="M18.0967 1.04602C18.0123 1.15382 17.9982 1.23819 17.9982 1.67877V2.18966H9.10224H0.201543L0.103115 2.29746L0 2.40526V12.5996V22.7986L0.107802 22.897L0.215604 23.0001H9.10692H17.9982V23.511C17.9982 23.9516 18.0123 24.036 18.0967 24.1438C18.1529 24.2188 18.2373 24.2656 18.3123 24.2656C18.4295 24.2656 23.4446 23.0939 23.7539 22.9954C23.8336 22.9673 23.9274 22.9064 23.9508 22.8595C24.0164 22.7376 24.0164 2.45213 23.9508 2.33027C23.9274 2.2834 23.8336 2.22246 23.7539 2.19434C23.4446 2.09591 18.4295 0.924154 18.3123 0.924154C18.2373 0.924154 18.1529 0.971024 18.0967 1.04602ZM20.9979 2.21309C22.1978 2.48494 23.2149 2.71929 23.2618 2.73335C23.3368 2.75679 23.3415 3.26768 23.3415 12.5949C23.3415 21.9221 23.3368 22.433 23.2618 22.4564C23.2149 22.4705 22.1978 22.7048 20.9979 22.9767C19.7981 23.2485 18.781 23.4876 18.7388 23.497C18.6591 23.5204 18.6544 22.9814 18.6544 12.5949C18.6544 2.2084 18.6591 1.66939 18.7388 1.69283C18.781 1.7022 19.7981 1.94124 20.9979 2.21309ZM7.35866 12.5949V22.3439H4.00742H0.656186V12.5949V2.84584H4.00742H7.35866V12.5949ZM15.9828 12.5949V22.3439H11.9988H8.01484V12.5949V2.84584H11.9988H15.9828V12.5949ZM17.9982 12.5949V22.3439H17.3186H16.639V12.5949V2.84584H17.3186H17.9982V12.5949Z" fill="#E4F2F6"/>
<path d="M19.4746 4.40145C19.4231 4.42958 19.3668 4.47645 19.3481 4.50457C19.3293 4.53269 19.3106 4.90765 19.3106 5.33417C19.3106 6.41688 19.1231 6.31377 21.1198 6.31377H22.7181L22.8212 6.20128C22.929 6.08879 22.929 6.07473 22.8962 5.32011C22.8681 4.64049 22.854 4.54675 22.7649 4.44832C22.6712 4.34521 22.6665 4.34521 21.1198 4.34521C20.0511 4.3499 19.5403 4.36396 19.4746 4.40145ZM22.2634 5.32949V5.65758H21.1151H19.9668V5.32949V5.00139H21.1151H22.2634V5.32949Z" fill="#E4F2F6"/>
<path d="M19.3856 9.31863C19.1325 9.52018 19.32 9.87639 19.6856 9.87639H19.873V11.6809V13.4854H19.6621C19.2309 13.4854 19.1137 13.8885 19.484 14.0854C19.5403 14.1182 19.7465 14.1416 19.9434 14.1416C20.2574 14.1416 20.3136 14.1275 20.4121 14.0244L20.5292 13.9119V11.6809V9.44987L20.4121 9.33738C20.3089 9.22958 20.2621 9.22021 19.9059 9.22021C19.5778 9.22021 19.4887 9.23427 19.3856 9.31863Z" fill="#E4F2F6"/>
<path d="M19.32 16.4526C19.1888 16.5932 19.1888 16.7713 19.3247 16.8979C19.4325 17.001 19.4559 17.001 21.0167 17.001H22.5963L22.7087 16.8838C22.7744 16.8229 22.8259 16.7244 22.8259 16.6729C22.8259 16.6213 22.7744 16.5229 22.7087 16.462L22.5963 16.3448H21.0074H19.4184L19.32 16.4526Z" fill="#E4F2F6"/>
<path d="M19.32 17.7651C19.1888 17.9057 19.1888 18.0838 19.3247 18.2104C19.4325 18.3135 19.4559 18.3135 21.0167 18.3135H22.5963L22.7087 18.1963C22.7744 18.1354 22.8259 18.0369 22.8259 17.9854C22.8259 17.9338 22.7744 17.8354 22.7087 17.7745L22.5963 17.6573H21.0074H19.4184L19.32 17.7651Z" fill="#E4F2F6"/>
<path d="M19.32 19.1235C19.1888 19.2641 19.1888 19.4422 19.3247 19.5688C19.4325 19.6719 19.4559 19.6719 21.0167 19.6719H22.5963L22.7087 19.5547C22.7744 19.4938 22.8259 19.3953 22.8259 19.3438C22.8259 19.2875 22.7744 19.1938 22.7087 19.1329L22.5963 19.0157H21.0074H19.4184L19.32 19.1235Z" fill="#E4F2F6"/>
<path d="M19.334 20.4454C19.1887 20.586 19.184 20.75 19.3246 20.8813C19.4324 20.9844 19.4559 20.9844 21.0167 20.9844H22.5962L22.7087 20.8672C22.7743 20.8063 22.8259 20.7078 22.8259 20.6563C22.8259 20.6047 22.7743 20.5063 22.7087 20.4454L22.5962 20.3282H21.0213H19.4465L19.334 20.4454Z" fill="#E4F2F6"/>
<path d="M1.79049 4.21937C1.69206 4.32248 1.68738 4.36467 1.68738 5.33488C1.68738 6.32854 1.68738 6.34729 1.79518 6.44571C1.90298 6.54883 1.91236 6.54883 4.01215 6.54883H6.12601L6.22443 6.44103C6.32286 6.33791 6.32755 6.29573 6.32755 5.32551C6.32755 4.33186 6.32755 4.31311 6.21975 4.21468C6.11195 4.11157 6.10257 4.11157 4.00278 4.11157H1.88892L1.79049 4.21937ZM5.67136 5.3302V5.89264H4.00746H2.34356V5.3302V4.76775H4.00746H5.67136V5.3302Z" fill="#E4F2F6"/>
<path d="M1.47643 9.33738L1.35925 9.44987V11.6809V13.9119L1.47643 14.0244C1.57486 14.1275 1.6311 14.1416 1.94513 14.1416C2.14199 14.1416 2.34822 14.1182 2.40446 14.0854C2.77474 13.8885 2.65756 13.4854 2.22636 13.4854H2.01544V11.6809V9.87639H2.20292C2.56851 9.87639 2.75599 9.52018 2.50289 9.31863C2.39978 9.23427 2.31072 9.22021 1.98263 9.22021C1.62641 9.22021 1.57954 9.22958 1.47643 9.33738Z" fill="#E4F2F6"/>
<path d="M2.30598 16.4526C2.17474 16.5932 2.17474 16.7713 2.31067 16.8979C2.41847 17.001 2.4419 17.001 4.01206 17.001H5.61034L5.70877 16.8932C5.84001 16.7526 5.84001 16.5745 5.70409 16.4479C5.59628 16.3448 5.57285 16.3448 4.00269 16.3448H2.40441L2.30598 16.4526Z" fill="#E4F2F6"/>
<path d="M2.30598 17.7651C2.17474 17.9057 2.17474 18.0838 2.31067 18.2104C2.41847 18.3135 2.4419 18.3135 4.01206 18.3135H5.61034L5.70877 18.2057C5.84001 18.0651 5.84001 17.887 5.70409 17.7604C5.59628 17.6573 5.57285 17.6573 4.00269 17.6573H2.40441L2.30598 17.7651Z" fill="#E4F2F6"/>
<path d="M2.30598 19.1235C2.17474 19.2641 2.17474 19.4422 2.31067 19.5688C2.41847 19.6719 2.4419 19.6719 4.01206 19.6719H5.61034L5.70877 19.5641C5.84001 19.4235 5.84001 19.2454 5.70409 19.1188C5.59628 19.0157 5.57285 19.0157 4.00269 19.0157H2.40441L2.30598 19.1235Z" fill="#E4F2F6"/>
<path d="M2.3201 20.4454C2.1748 20.586 2.17011 20.75 2.31072 20.8813C2.41853 20.9844 2.44196 20.9844 4.01212 20.9844H5.6104L5.70883 20.8766C5.84475 20.736 5.84007 20.586 5.69477 20.4454L5.58228 20.3282H4.00743H2.43259L2.3201 20.4454Z" fill="#E4F2F6"/>
<path d="M9.77245 4.22874C9.65527 4.34123 9.65527 4.34123 9.65527 5.3302C9.65527 6.31916 9.65527 6.31916 9.77245 6.43165L9.88494 6.54883H11.9988H14.1127L14.2251 6.43165C14.3423 6.31916 14.3423 6.31916 14.3423 5.3302C14.3423 4.34123 14.3423 4.34123 14.2251 4.22874L14.1127 4.11157H11.9988H9.88494L9.77245 4.22874ZM13.6861 5.3302V5.89264H11.9988H10.3115V5.3302V4.76775H11.9988H13.6861V5.3302Z" fill="#E4F2F6"/>
<path d="M8.81632 9.34207C8.7179 9.46393 8.7179 9.5108 8.7179 11.6997C8.7179 12.9277 8.73664 13.9541 8.75539 13.9822C8.8257 14.09 9.00381 14.1416 9.32721 14.1416C9.66468 14.1416 9.81935 14.0947 9.92247 13.9588C10.0068 13.851 9.99746 13.7479 9.88497 13.6073C9.80529 13.5089 9.74904 13.4854 9.58031 13.4854H9.37408V11.6809V9.87639H9.56156C9.70217 9.87639 9.78185 9.84358 9.86622 9.75922C10.0162 9.61392 10.0162 9.48268 9.86622 9.33738C9.76311 9.22958 9.71624 9.22021 9.3319 9.22021C8.9335 9.22021 8.90538 9.22489 8.81632 9.34207Z" fill="#E4F2F6"/>
<path d="M10.3209 16.4526C10.1896 16.5932 10.1896 16.7713 10.3256 16.8979C10.4334 17.001 10.4568 17.001 12.0035 17.001H13.5784L13.6768 16.8932C13.808 16.7526 13.808 16.5745 13.6721 16.4479C13.5643 16.3448 13.5409 16.3448 11.9941 16.3448H10.4193L10.3209 16.4526Z" fill="#E4F2F6"/>
<path d="M10.3209 17.7651C10.1896 17.9057 10.1896 18.0838 10.3256 18.2104C10.4334 18.3135 10.4568 18.3135 12.0035 18.3135H13.5784L13.6768 18.2057C13.808 18.0651 13.808 17.887 13.6721 17.7604C13.5643 17.6573 13.5409 17.6573 11.9941 17.6573H10.4193L10.3209 17.7651Z" fill="#E4F2F6"/>
<path d="M10.3209 19.1235C10.1896 19.2641 10.1896 19.4422 10.3256 19.5688C10.4334 19.6719 10.4568 19.6719 12.0035 19.6719H13.5784L13.6768 19.5641C13.808 19.4235 13.808 19.2454 13.6721 19.1188C13.5643 19.0157 13.5409 19.0157 11.9941 19.0157H10.4193L10.3209 19.1235Z" fill="#E4F2F6"/>
<path d="M10.3349 20.4454C10.1896 20.586 10.1849 20.75 10.3255 20.8813C10.4333 20.9844 10.4567 20.9844 12.0035 20.9844H13.5783L13.6767 20.8766C13.8127 20.736 13.808 20.586 13.6627 20.4454L13.5502 20.3282H11.9988H10.4474L10.3349 20.4454Z" fill="#E4F2F6"/>
</svg>
