<svg width="21" height="20" viewBox="0 0 21 20" fill="none" xmlns="http://www.w3.org/2000/svg">
<path fill-rule="evenodd" clip-rule="evenodd" d="M8.09151 13.2068C11.7805 13.2068 14.9335 13.7658 14.9335 15.9988C14.9335 18.2318 11.8015 18.8068 8.09151 18.8068C4.40151 18.8068 1.24951 18.2528 1.24951 16.0188C1.24951 13.7848 4.38051 13.2068 8.09151 13.2068Z" stroke="#E4F2F6" stroke-width="1.5" stroke-linecap="round" stroke-linejoin="round"/>
<path fill-rule="evenodd" clip-rule="evenodd" d="M8.09157 10.0198C5.66957 10.0198 3.70557 8.05676 3.70557 5.63476C3.70557 3.21276 5.66957 1.24976 8.09157 1.24976C10.5126 1.24976 12.4766 3.21276 12.4766 5.63476C12.4856 8.04776 10.5356 10.0108 8.12257 10.0198H8.09157Z" stroke="#E4F2F6" stroke-width="1.5" stroke-linecap="round" stroke-linejoin="round"/>
<path d="M14.9829 8.88153C16.5839 8.65653 17.8169 7.28253 17.8199 5.61953C17.8199 3.98053 16.6249 2.62053 15.0579 2.36353" stroke="#E4F2F6" stroke-width="1.5" stroke-linecap="round" stroke-linejoin="round"/>
<path d="M17.0952 12.7322C18.6462 12.9632 19.7292 13.5072 19.7292 14.6272C19.7292 15.3982 19.2192 15.8982 18.3952 16.2112" stroke="#E4F2F6" stroke-width="1.5" stroke-linecap="round" stroke-linejoin="round"/>
</svg>
