<svg width="64" height="40" viewBox="0 0 64 40" fill="none" xmlns="http://www.w3.org/2000/svg">
<rect x="0.5" y="0.5" width="63" height="38.3333" rx="9.5" stroke="#283135"/>
<path d="M32 17C31.4726 17 30.957 17.1564 30.5185 17.4494C30.08 17.7424 29.7382 18.1589 29.5363 18.6462C29.3345 19.1334 29.2817 19.6696 29.3846 20.1869C29.4875 20.7042 29.7414 21.1793 30.1144 21.5523C30.4873 21.9252 30.9625 22.1792 31.4798 22.2821C31.997 22.385 32.5332 22.3322 33.0205 22.1303C33.5078 21.9285 33.9242 21.5867 34.2173 21.1482C34.5103 20.7097 34.6667 20.1941 34.6667 19.6667C34.6667 18.9594 34.3857 18.2811 33.8856 17.781C33.3855 17.281 32.7072 17 32 17ZM22.6667 17C22.1393 17 21.6237 17.1564 21.1851 17.4494C20.7466 17.7424 20.4048 18.1589 20.203 18.6462C20.0012 19.1334 19.9483 19.6696 20.0512 20.1869C20.1541 20.7042 20.4081 21.1793 20.781 21.5523C21.154 21.9252 21.6291 22.1792 22.1464 22.2821C22.6637 22.385 23.1999 22.3322 23.6872 22.1303C24.1744 21.9285 24.5909 21.5867 24.8839 21.1482C25.1769 20.7097 25.3333 20.1941 25.3333 19.6667C25.3333 18.9594 25.0524 18.2811 24.5523 17.781C24.0522 17.281 23.3739 17 22.6667 17ZM41.3333 17C40.8059 17 40.2903 17.1564 39.8518 17.4494C39.4133 17.7424 39.0715 18.1589 38.8697 18.6462C38.6678 19.1334 38.615 19.6696 38.7179 20.1869C38.8208 20.7042 39.0748 21.1793 39.4477 21.5523C39.8207 21.9252 40.2958 22.1792 40.8131 22.2821C41.3304 22.385 41.8666 22.3322 42.3538 22.1303C42.8411 21.9285 43.2576 21.5867 43.5506 21.1482C43.8436 20.7097 44 20.1941 44 19.6667C44 18.9594 43.719 18.2811 43.219 17.781C42.7189 17.281 42.0406 17 41.3333 17Z" fill="#E4F2F6"/>
</svg>
