<svg width="24" height="24" viewBox="0 0 24 24" fill="none" xmlns="http://www.w3.org/2000/svg">
<path d="M12.3494 0.207945C12.2376 0.324811 12.202 0.406109 12.202 0.558542C12.202 0.7313 12.2427 0.807517 12.4459 1.03617C13.2132 1.87963 13.579 2.82472 13.5841 3.94765C13.5841 5.05025 13.2182 5.99534 12.4713 6.8388C12.1919 7.15383 12.1715 7.40281 12.4002 7.63654C12.6085 7.84486 12.8473 7.83978 13.0912 7.62129C13.6501 7.13351 14.2345 6.08172 14.4682 5.14171C14.6156 4.56246 14.6054 3.29726 14.4479 2.67737C14.2396 1.8339 13.6197 0.741462 13.0709 0.248594C12.8016 0.00470066 12.5679 -0.0105429 12.3494 0.207945Z" fill="#E4F2F6"/>
<path d="M0.913916 0.414658L0.746239 0.56201L0.730996 11.7405L0.720834 22.9189L0.497264 22.9494C0.0247204 23.0205 -0.1582 23.4829 0.156829 23.798L0.304182 23.9453H12.0009H23.6977L23.845 23.798C24.0483 23.5896 24.0533 23.3102 23.8501 23.1171C23.7739 23.0409 23.6824 22.9799 23.6468 22.9799C23.6011 22.9799 23.5859 22.2177 23.5859 19.7381C23.5859 16.1763 23.5859 16.161 23.2708 15.5157C23.1591 15.282 22.9812 15.0534 22.6916 14.7587L22.28 14.342H22.7983C23.7231 14.342 23.7891 14.2759 23.7891 13.3512C23.7891 12.9955 23.7637 12.6652 23.7383 12.6093C23.6519 12.4569 23.3928 12.3451 23.1997 12.3807C22.9355 12.4315 22.8237 12.6195 22.8237 13.0057V13.3309L22.1022 13.3156L21.3807 13.3004L20.8675 12.1571C20.2882 10.8614 20.0901 10.5464 19.5819 10.0637C19.1348 9.64197 18.6673 9.36759 18.0474 9.1491L17.5647 8.98142L14.1248 8.96618C10.7967 8.95093 10.6646 8.95602 10.2378 9.05764C9.3689 9.26088 8.46446 9.82489 7.97667 10.4651C7.65656 10.8818 7.54986 11.085 7.02142 12.2689L6.54888 13.3258H5.84768H5.14141V13.0463C5.14141 12.711 5.04995 12.5077 4.86195 12.4213C4.65362 12.3248 4.4961 12.3502 4.31827 12.5077L4.15059 12.6551L4.13535 13.2648C4.10486 14.2302 4.21156 14.342 5.14141 14.342H5.71049L5.45135 14.5452C5.00422 14.8958 4.64346 15.4598 4.44529 16.095C4.35891 16.3795 4.35383 16.6387 4.35383 19.6619V22.9291H3.04799H1.73706V15.7901V8.65115H4.59773H7.4584L7.69213 8.5038C7.84456 8.40726 7.95635 8.28023 8.03256 8.13287C8.13927 7.90931 8.13927 7.87882 8.13927 4.46939C8.13927 1.65445 8.12402 0.993904 8.06813 0.861795C7.98175 0.663631 7.70737 0.394333 7.51429 0.323196C7.41775 0.287628 6.32023 0.267303 4.22681 0.267303H1.07651L0.913916 0.414658ZM7.14337 1.67477C7.15861 1.88818 7.17385 3.32614 7.17385 4.87588V7.68574H4.45546H1.73706V4.48463V1.28353H4.42497H7.1078L7.14337 1.67477ZM17.5647 10.0434C18.2456 10.2466 18.957 10.7446 19.3228 11.2781C19.4397 11.4407 20.2323 13.1327 20.522 13.8186C20.5423 13.8695 19.2161 13.8847 13.9876 13.8847C10.38 13.8847 7.42791 13.8695 7.42791 13.8491C7.42791 13.7882 8.39332 11.6439 8.51019 11.4458C8.82014 10.9173 9.41971 10.4143 10.0193 10.1755C10.6087 9.93667 10.8119 9.92651 14.135 9.94175C16.9601 9.95191 17.2904 9.96208 17.5647 10.0434ZM9.89225 14.9619C10.2886 16.6641 10.3496 16.8317 10.7052 17.2281C10.9593 17.5126 11.3048 17.7108 11.7215 17.8226C12.1381 17.9293 15.7 17.9344 16.1014 17.8276C16.513 17.7159 16.8127 17.5431 17.077 17.2636C17.4276 16.8927 17.5292 16.6641 17.7629 15.7139L17.9712 14.8755L19.4956 14.8806C21.1927 14.8806 21.2333 14.8908 21.7465 15.2414C22.0666 15.4598 22.341 15.8155 22.4731 16.1966C22.5595 16.4507 22.5696 16.6234 22.5696 18.2036V19.9312H13.9571H5.34465V18.29C5.34465 17.3907 5.37006 16.5574 5.39546 16.4354C5.57838 15.658 6.23385 15.033 7.0011 14.906C7.13829 14.8806 7.83948 14.8603 8.55592 14.8552L9.86685 14.8501L9.89225 14.9619ZM16.9296 14.8704C16.9296 14.8857 16.8585 15.1855 16.7772 15.5462C16.5841 16.3541 16.4621 16.5726 16.1065 16.7505L15.8422 16.8826H13.9216C12.2956 16.8826 11.9704 16.8724 11.8078 16.8013C11.6097 16.72 11.3658 16.5167 11.2845 16.3592C11.2235 16.2474 10.9339 15.0889 10.9339 14.9517C10.9339 14.8501 10.9593 14.8501 13.9317 14.8501C15.5831 14.8501 16.9296 14.8603 16.9296 14.8704ZM7.92586 21.8519C7.9157 22.5277 7.89029 22.7817 7.83948 22.8427C7.77851 22.9189 7.63115 22.9291 6.6505 22.9291C5.68001 22.9291 5.51741 22.9189 5.43611 22.8427C5.35481 22.7716 5.34465 22.67 5.34465 21.8519V20.9475H6.64542H7.9411L7.92586 21.8519ZM19.0129 21.857C19.0129 22.36 19.0281 22.8021 19.0433 22.8478C19.0738 22.924 18.6064 22.9291 13.9876 22.9291H8.90143V21.9383V20.9475H13.9571H19.0129V21.857ZM22.5696 21.8773C22.5696 22.5328 22.5493 22.8275 22.5087 22.8681C22.4629 22.9138 22.1276 22.9291 21.3197 22.9291C20.3594 22.9291 20.1764 22.9189 20.1104 22.8478C20.0443 22.7817 20.0291 22.6191 20.0291 21.857V20.9475H21.2994H22.5696V21.8773Z" fill="#E4F2F6"/>
<path d="M3.18063 2.29625C2.90625 2.40296 2.90625 2.42328 2.90625 4.47097V6.37131L3.0536 6.51866C3.16539 6.62537 3.25177 6.66602 3.38896 6.66602C3.52615 6.66602 3.61253 6.62537 3.72431 6.51866C3.87166 6.37131 3.87166 6.36115 3.87166 5.78698V5.20773L4.38486 5.17725C4.97935 5.14676 5.32994 5.00449 5.60432 4.69962C6.00065 4.24232 6.09719 3.5767 5.83805 3.07875C5.6653 2.73831 5.29946 2.4182 4.97426 2.32166C4.68972 2.23528 3.36863 2.22004 3.18063 2.29625ZM4.8574 3.41918C5.02508 3.61226 5.02508 3.82059 4.86756 4.00859C4.7507 4.1407 4.71005 4.15086 4.30864 4.17119L3.87166 4.18643V3.72405V3.26167H4.29848C4.71513 3.26167 4.73037 3.26675 4.8574 3.41918Z" fill="#E4F2F6"/>
<path d="M7.35363 15.9489C7.00812 16.0658 6.56606 16.5079 6.44919 16.8483C6.33741 17.1684 6.33741 17.5546 6.44919 17.8747C6.56606 18.2253 7.00812 18.6623 7.37396 18.7842C7.90239 18.957 8.55278 18.7995 8.93894 18.393C9.4623 17.8442 9.47246 16.9448 8.95927 16.3554C8.59851 15.9489 7.88715 15.766 7.35363 15.9489ZM8.1971 17.0261C8.3038 17.1379 8.34445 17.2243 8.34445 17.3615C8.34445 17.7832 7.81093 18.0068 7.51115 17.7121C7.31299 17.5089 7.32315 17.1887 7.53655 17.0109C7.75504 16.828 7.99894 16.8331 8.1971 17.0261Z" fill="#E4F2F6"/>
<path d="M19.618 15.9392C19.3284 16.0307 18.8965 16.4118 18.7491 16.6963C18.678 16.8335 18.6323 17.0368 18.617 17.2908C18.5967 17.6313 18.6119 17.7176 18.7237 17.9615C19.3894 19.4198 21.5641 18.9828 21.5742 17.3874C21.5742 16.9758 21.498 16.7421 21.249 16.427C20.8832 15.9647 20.182 15.7563 19.618 15.9392ZM20.4107 16.9961C20.5021 17.0723 20.5529 17.179 20.5733 17.3213C20.5987 17.5093 20.5834 17.55 20.4462 17.6922C20.1718 17.9666 19.745 17.8802 19.6231 17.5195C19.4706 17.052 20.0347 16.6709 20.4107 16.9961Z" fill="#E4F2F6"/>
<path d="M11.0784 1.25563C10.9158 1.34709 10.8041 1.59098 10.8498 1.76882C10.8701 1.84504 10.987 2.02288 11.1089 2.16007C11.4189 2.51067 11.6323 2.96289 11.7288 3.46084C11.8 3.8216 11.805 3.94862 11.7542 4.29922C11.6882 4.75144 11.4494 5.31544 11.2004 5.60507C10.9463 5.89469 10.8803 6.02172 10.8803 6.19448C10.8803 6.42821 11.0581 6.61621 11.3173 6.65178C11.5154 6.67718 11.551 6.66194 11.7644 6.46378C12.3792 5.89469 12.7654 4.91404 12.7654 3.9283C12.7654 3.02386 12.4859 2.25153 11.9117 1.55542C11.6069 1.18958 11.363 1.1032 11.0784 1.25563Z" fill="#E4F2F6"/>
<path d="M9.77159 2.36699C9.62424 2.44828 9.51753 2.6312 9.51245 2.80904C9.51245 2.88018 9.59883 3.05294 9.7157 3.21045C10.0561 3.66775 10.0663 4.1403 9.73602 4.61284C9.48196 4.98376 9.47688 5.19717 9.70553 5.40041C10.0002 5.66463 10.3305 5.55285 10.6252 5.09555C11.1791 4.23684 11.0673 3.10375 10.3712 2.47877C10.1578 2.28061 9.985 2.25012 9.77159 2.36699Z" fill="#E4F2F6"/>
</svg>
