<svg width="24" height="29" viewBox="0 0 24 29" fill="none" xmlns="http://www.w3.org/2000/svg">
<path d="M1.2574 0.680376C1.13713 0.718645 0.978588 0.778782 0.907517 0.817051C0.661503 0.953726 0.289749 1.33641 0.147608 1.61523L0 1.88858V13.5606V25.2325L0.147608 25.5114C0.317084 25.8339 0.770843 26.2658 1.04419 26.3642L1.23007 26.4298V26.9546C1.23007 27.6052 1.32847 27.9114 1.61822 28.2066C1.92984 28.5182 2.20866 28.5947 3.02323 28.5947C3.81048 28.5947 4.04556 28.5401 4.34624 28.2776C4.69613 27.9824 4.79453 27.7309 4.82733 27.0804L4.85467 26.5173H7.25467C9.85695 26.5173 9.88428 26.5118 10.021 26.2166C10.1303 25.976 10.0975 25.8066 9.90068 25.6098L9.71481 25.4239H5.64191H1.57449L1.38861 25.2981C1.29021 25.2325 1.1754 25.1123 1.13713 25.0412C1.08246 24.9319 1.06606 22.5264 1.06606 13.5606C1.06606 2.40247 1.06606 2.21113 1.1754 2.04165C1.39954 1.6699 0.519362 1.69723 12.0109 1.69723C22.2342 1.69723 22.42 1.69723 22.5895 1.80657C22.9613 2.03072 22.9339 1.05213 22.9339 13.5715C22.9339 24.7132 22.9339 24.91 22.8246 25.0795C22.6059 25.4403 22.8137 25.4239 18.3144 25.4239C14.6023 25.4239 14.2196 25.4348 14.0774 25.5168C13.8205 25.6644 13.744 25.9378 13.8697 26.2166C14.0064 26.5173 14.0282 26.5173 16.6907 26.5173H19.1453L19.1727 27.0749C19.2055 27.7309 19.3039 27.9824 19.6538 28.2776C19.9544 28.5401 20.1895 28.5947 20.9768 28.5947C21.7913 28.5947 22.0702 28.5182 22.3818 28.2066C22.6715 27.9114 22.7699 27.6052 22.7699 26.9546V26.4298L22.9722 26.3587C23.2456 26.2603 23.6775 25.8394 23.8524 25.5059L24 25.2325V13.5606V1.88858L23.8524 1.61523C23.6775 1.27628 23.2893 0.90999 22.9449 0.751448L22.6879 0.631174L12.082 0.620241C3.66287 0.614773 1.43235 0.625708 1.2574 0.680376ZM3.74487 26.9054C3.74487 27.4959 3.73941 27.5013 3.0451 27.5013C2.65695 27.5013 2.4328 27.4795 2.38907 27.4357C2.3508 27.3975 2.32346 27.2006 2.32346 26.9437V26.5173H3.03417H3.74487V26.9054ZM21.6765 26.9437C21.6765 27.2006 21.6492 27.3975 21.6109 27.4357C21.5672 27.4795 21.3431 27.5013 20.9549 27.5013C20.2606 27.5013 20.2551 27.4959 20.2551 26.9054V26.5173H20.9658H21.6765V26.9437Z" fill="#E4F2F6"/>
<path d="M2.45464 2.84484C2.38904 2.87217 2.2961 2.94871 2.2469 3.01978C2.16489 3.12912 2.15942 4.08037 2.15942 13.5765V24.0129L2.31797 24.1715L2.47651 24.33H6.75168C11.3877 24.33 11.2455 24.341 11.3877 24.0293C11.4369 23.92 11.4533 21.4489 11.4533 13.5546C11.4533 2.31454 11.4751 2.99791 11.1526 2.85577C10.9831 2.77924 2.64598 2.7683 2.45464 2.84484ZM10.3599 13.5601V23.2366H6.80635H3.25282V19.1145V14.9924L4.25327 14.9706C5.2428 14.9542 5.2592 14.9542 5.57628 14.7902C6.16125 14.4895 6.46193 13.9373 6.41273 13.2704C6.37993 12.8658 6.23778 12.5706 5.94803 12.2972C5.54895 11.9145 5.47241 11.8927 4.30794 11.8763L3.25282 11.8544V7.86898V3.88356H6.80635H10.3599V13.5601ZM5.19359 13.0954C5.3412 13.243 5.374 13.5273 5.2592 13.6749C5.11705 13.8608 4.95851 13.8881 4.10567 13.8881H3.25282V13.4234V12.9587H4.15487C5.04598 12.9587 5.06239 12.9587 5.19359 13.0954Z" fill="#E4F2F6"/>
<path d="M4.74535 5.16924C4.5704 5.34418 4.554 5.38792 4.58134 5.56833C4.60321 5.69954 4.67428 5.82528 4.78362 5.91821L4.94763 6.07129H6.83373H8.71983L8.89478 5.91275C9.04239 5.78154 9.07519 5.71594 9.07519 5.52459C9.07519 5.33325 9.04239 5.26764 8.89478 5.13644L8.71983 4.9779H6.82826H4.93669L4.74535 5.16924Z" fill="#E4F2F6"/>
<path d="M4.94755 7.06049C4.73981 7.14796 4.625 7.2737 4.58673 7.46505C4.54847 7.66733 4.66874 7.95161 4.83275 8.03908C4.90382 8.07188 5.64733 8.09375 6.86099 8.09375H8.7799L8.91111 7.96254C9.10792 7.76573 9.14072 7.56345 9.01498 7.33384C8.94391 7.20263 8.8455 7.11516 8.71976 7.07143C8.47922 6.98942 5.14983 6.97849 4.94755 7.06049Z" fill="#E4F2F6"/>
<path d="M4.80541 18.962C4.52113 19.1862 4.50473 19.5579 4.76168 19.7985L4.90382 19.9297H6.83366H8.7635L8.90017 19.8039C9.07512 19.6399 9.12432 19.4486 9.04778 19.2135C8.93297 18.8691 8.88377 18.8636 6.79539 18.8636C5.10063 18.8636 4.90928 18.8746 4.80541 18.962Z" fill="#E4F2F6"/>
<path d="M4.94762 20.9244C4.65787 21.0337 4.5048 21.3781 4.61961 21.6569C4.75081 21.9686 4.81642 21.9795 6.82826 21.9795C8.0802 21.9795 8.70343 21.9576 8.79637 21.9194C8.97678 21.8374 9.11892 21.5312 9.07519 21.3289C9.05879 21.2415 8.98225 21.1157 8.90571 21.0446L8.76357 20.9134L6.89933 20.9025C5.87154 20.897 4.99136 20.908 4.94762 20.9244Z" fill="#E4F2F6"/>
<path d="M12.8256 2.8667C12.5358 3.03071 12.5522 2.42388 12.5468 13.5437C12.5468 21.4489 12.5632 23.92 12.6124 24.0293C12.7545 24.341 12.6124 24.33 17.2483 24.33H21.5235L21.6821 24.1715L21.8406 24.0129V13.5656V3.12365L21.7094 2.97058L21.5782 2.8175L17.2647 2.80657C13.755 2.79563 12.9349 2.80657 12.8256 2.8667ZM20.7472 13.5601V23.2366H17.1937H13.6401V19.1145V14.9924L14.6679 14.9706C15.816 14.9432 15.9417 14.9104 16.3463 14.5387C16.6634 14.2489 16.8274 13.8498 16.8274 13.3961C16.8274 12.7783 16.5376 12.3082 15.98 12.0348L15.6465 11.8653H14.6406H13.6401V7.87445V3.88356H17.1937H20.7472V13.5601ZM15.6083 13.0954C15.7832 13.2813 15.7832 13.571 15.6192 13.7405C15.5044 13.8553 15.4442 13.8608 14.5695 13.8772L13.6401 13.8936V13.4289V12.9587H14.5586C15.4716 12.9587 15.4825 12.9587 15.6083 13.0954Z" fill="#E4F2F6"/>
<path d="M15.231 5.05427C14.8592 5.26202 14.8811 5.85245 15.2693 6.01099C15.3786 6.05473 15.9472 6.07113 17.2975 6.0602L19.1727 6.0438L19.3039 5.89072C19.4952 5.66657 19.4843 5.34949 19.2766 5.13628L19.118 4.97774H17.2374C15.7886 4.9832 15.3349 4.9996 15.231 5.05427Z" fill="#E4F2F6"/>
<path d="M15.3513 7.03862C15.2857 7.04956 15.1654 7.13703 15.0889 7.2245C14.8975 7.45958 14.903 7.72746 15.1107 7.93521L15.2693 8.09375H17.21H19.1453L19.293 7.95161C19.4023 7.84227 19.4351 7.74933 19.4351 7.57985C19.4351 7.29011 19.3203 7.1261 19.0633 7.05503C18.872 7.00582 15.6191 6.98942 15.3513 7.03862Z" fill="#E4F2F6"/>
<path d="M15.1107 19.0216C14.892 19.2403 14.892 19.5082 15.1107 19.7488L15.2692 19.9292L17.117 19.9456C19.0578 19.962 19.1945 19.9456 19.353 19.7159C19.3968 19.6558 19.435 19.5027 19.435 19.377C19.435 19.1857 19.4077 19.12 19.2656 19.0052L19.0961 18.8631H17.1826H15.2692L15.1107 19.0216Z" fill="#E4F2F6"/>
<path d="M15.302 20.9408C14.9467 21.0829 14.8428 21.5531 15.1107 21.821L15.2692 21.9795H17.1936H19.118L19.2765 21.821C19.446 21.6515 19.4897 21.3672 19.3804 21.154C19.2437 20.9025 19.118 20.8861 17.21 20.8916C16.2259 20.8916 15.3622 20.9134 15.302 20.9408Z" fill="#E4F2F6"/>
<path d="M11.6775 25.4953C11.2073 25.7686 11.4041 26.5176 11.9454 26.5176C12.2351 26.5176 12.4921 26.2497 12.4921 25.949C12.4921 25.6101 11.9782 25.3258 11.6775 25.4953Z" fill="#E4F2F6"/>
</svg>
