<svg width="25" height="24" viewBox="0 0 25 24" fill="none" xmlns="http://www.w3.org/2000/svg">
<path fill-rule="evenodd" clip-rule="evenodd" d="M3.5 6.5C3.5 3.87479 3.52811 3 7 3C10.4719 3 10.5 3.87479 10.5 6.5C10.5 9.12521 10.5111 10 7 10C3.48893 10 3.5 9.12521 3.5 6.5Z" stroke="#E4F2F6" stroke-width="1.5" stroke-linecap="round" stroke-linejoin="round"/>
<path fill-rule="evenodd" clip-rule="evenodd" d="M14.5 6.5C14.5 3.87479 14.5281 3 18 3C21.4719 3 21.5 3.87479 21.5 6.5C21.5 9.12521 21.5111 10 18 10C14.4889 10 14.5 9.12521 14.5 6.5Z" stroke="#E4F2F6" stroke-width="1.5" stroke-linecap="round" stroke-linejoin="round"/>
<path fill-rule="evenodd" clip-rule="evenodd" d="M3.5 17.5C3.5 14.8748 3.52811 14 7 14C10.4719 14 10.5 14.8748 10.5 17.5C10.5 20.1252 10.5111 21 7 21C3.48893 21 3.5 20.1252 3.5 17.5Z" stroke="#E4F2F6" stroke-width="1.5" stroke-linecap="round" stroke-linejoin="round"/>
<path fill-rule="evenodd" clip-rule="evenodd" d="M14.5 17.5C14.5 14.8748 14.5281 14 18 14C21.4719 14 21.5 14.8748 21.5 17.5C21.5 20.1252 21.5111 21 18 21C14.4889 21 14.5 20.1252 14.5 17.5Z" stroke="#E4F2F6" stroke-width="1.5" stroke-linecap="round" stroke-linejoin="round"/>
</svg>
