<svg width="24" height="25" viewBox="0 0 24 25" fill="none" xmlns="http://www.w3.org/2000/svg">
<path d="M11.1581 0.25169C10.079 0.401691 9.05806 0.822659 8.16774 1.4904C6.88548 2.45814 6.02903 3.83717 5.72903 5.40975L5.64194 5.85975H3.78871H1.94032L1.89194 6.03879C1.8629 6.1404 1.50484 7.5775 1.08871 9.23234C0.377419 12.1017 0.33871 12.2662 0.33871 12.7162C0.33871 13.5339 0.546774 14.1872 0.93871 14.6517L1.1129 14.8501V19.5243V24.1985H0.556452H0V24.5856V24.9727H12H24V24.5856V24.1985H23.4435H22.8871V22.1662V20.1339H22.5242H22.1613V20.6662V21.1985H18.7742H15.3871V19.1178V17.0372L18.7645 17.0469L22.1371 17.0614L22.1516 18.2081L22.1613 19.3598H22.5242H22.8871V17.1049V14.8501L23.0468 14.6517C23.4726 14.1194 23.6129 13.6985 23.6468 12.8759L23.671 12.271L22.9161 9.24685C22.4952 7.58233 22.1371 6.1404 22.1081 6.03879L22.0597 5.85975H20.2113H18.3581L18.271 5.40975C18.0242 4.11298 17.3806 2.91298 16.4371 1.99846C16.2387 1.80976 16.0548 1.65008 16.0355 1.65008C15.9919 1.65492 15.5806 2.14846 15.5806 2.19685C15.5806 2.21137 15.7258 2.36137 15.9 2.53072C16.6113 3.21298 17.2016 4.20975 17.4484 5.16298C17.6177 5.79685 17.6613 6.87588 17.5452 7.52911C17.279 9.0533 16.4081 10.3985 15.121 11.2598C14.9081 11.4049 14.7048 11.521 14.671 11.521C14.6226 11.521 14.6129 11.2162 14.6226 10.0598L14.6371 8.6033L14.8935 8.51621C15.7113 8.2404 16.1129 7.52911 16.1129 6.36782C16.1129 4.43717 14.879 3.13556 13.6306 3.75008C13.1661 3.9775 12.779 4.50008 12.5468 5.20653C12.3823 5.71943 12.3387 6.63879 12.4548 7.13717C12.6145 7.81943 13.0597 8.35169 13.6016 8.51137L13.8871 8.59363V10.2485V11.9033L13.6113 11.9807C13.1129 12.1259 12.6145 12.1936 12.0242 12.1985C11.3758 12.1985 10.979 12.1452 10.4661 11.9952L10.1129 11.8936V10.0162V8.13879L10.2968 8.10975C10.9645 8.0033 11.4145 7.65492 11.5645 7.12266C11.5935 7.02588 11.6129 6.30492 11.6129 5.45814V3.97266H11.25H10.8871V4.52911V5.08556H10.5H10.1129V4.52911V3.97266H9.75H9.3871V4.52911V5.08556H9H8.6129V4.52911V3.97266H8.25H7.8871V5.51137V7.05492L8.0371 7.35492C8.26452 7.80492 8.57903 8.00814 9.20807 8.10975L9.3871 8.13879V9.8275C9.3871 11.1485 9.37258 11.521 9.32903 11.521C9.19355 11.521 8.41935 10.9452 8.02742 10.5533C7.32581 9.85653 6.8129 8.97588 6.55161 8.01298C6.42581 7.56298 6.41613 7.46137 6.41613 6.58556C6.41613 5.70975 6.42581 5.60814 6.54677 5.15814C7.07419 3.20814 8.62742 1.65976 10.5823 1.1275C11.0177 1.01137 11.129 1.00169 12 1.00169C12.871 1.00169 12.9823 1.01137 13.4177 1.13234C13.7806 1.22911 14.6226 1.58718 14.9516 1.78072C14.9806 1.80008 15.3387 1.23395 15.3387 1.17105C15.3387 1.09846 14.5113 0.696852 14.0516 0.542013C13.8145 0.464594 13.4468 0.362982 13.2339 0.319433C12.7742 0.222658 11.6274 0.183949 11.1581 0.25169ZM14.5548 4.4275C15.0484 4.68395 15.4355 5.71943 15.3726 6.58556C15.3048 7.45653 14.9516 7.85814 14.2597 7.8533C13.9065 7.84846 13.7177 7.7904 13.5339 7.61137C12.9532 7.06459 13.0065 5.5404 13.6306 4.70814C13.8726 4.38395 14.2548 4.27266 14.5548 4.4275ZM10.8871 6.32911C10.8871 6.70169 10.8677 6.83717 10.7903 7.00169C10.6403 7.30653 10.4903 7.35975 9.74032 7.35975C8.7629 7.35975 8.6129 7.22427 8.6129 6.35814V5.85975H9.75H10.8871V6.32911ZM5.56452 6.60008C5.56452 6.60975 5.43387 7.7904 5.27419 9.22266C5.11452 10.6549 4.98387 11.8356 4.98387 11.8452C4.98387 11.8501 4.13226 11.8598 3.09194 11.8598C1.31613 11.8598 1.20484 11.8549 1.22903 11.7727C1.24355 11.7291 1.53871 10.5436 1.89194 9.13556L2.52581 6.58556H4.04516C4.88226 6.58556 5.56452 6.59524 5.56452 6.60008ZM21.4839 6.69201C21.5081 6.75492 21.8032 7.90169 22.1371 9.24685C22.471 10.592 22.7565 11.7291 22.771 11.7727C22.7952 11.8549 22.6839 11.8598 20.9081 11.8598H19.0161L18.9968 11.7485C18.9726 11.6517 18.4355 6.70653 18.4355 6.61943C18.4355 6.60008 19.1129 6.58556 19.9355 6.58556H21.4355L21.4839 6.69201ZM6.73548 10.1759C7.29677 11.0033 8.4 11.9662 9.18871 12.3194L9.40161 12.4114L9.37258 12.9001C9.33387 13.6452 9.10161 14.1388 8.6129 14.4969C8.23548 14.7727 7.89194 14.8743 7.39839 14.8501C7.06452 14.8356 6.92903 14.8017 6.69677 14.6904C6.34355 14.5162 5.96129 14.1436 5.81129 13.8194C5.67097 13.5194 5.58871 13.0549 5.63226 12.813L5.66613 12.6339H6.58065H7.5V12.2469V11.8598H6.62903C5.79677 11.8598 5.75806 11.8549 5.75806 11.763C5.75806 11.7146 5.82581 11.0807 5.90323 10.3598C5.98548 9.63879 6.04839 9.02427 6.04839 8.9904C6.04839 8.95653 6.13548 9.11137 6.24194 9.32911C6.34355 9.54685 6.56613 9.92911 6.73548 10.1759ZM18.0968 10.4759C18.179 11.2162 18.2371 11.8307 18.2274 11.8404C18.2177 11.8549 17.6274 11.8549 16.9113 11.8501L15.6194 11.8356L15.8468 11.671C16.5919 11.1339 17.3758 10.171 17.7919 9.26621C17.8645 9.10653 17.9274 9.01459 17.9371 9.0533C17.9419 9.09201 18.0145 9.73072 18.0968 10.4759ZM4.82903 13.0598C4.81936 13.4178 4.79032 13.5291 4.65968 13.8001C4.47097 14.1872 4.12258 14.5259 3.73548 14.7049C3.49355 14.821 3.40161 14.8356 2.97581 14.8356C2.55 14.8356 2.45806 14.821 2.21613 14.7049C1.82903 14.5259 1.48065 14.1872 1.29677 13.8049C1.16613 13.5436 1.1371 13.4227 1.12258 13.0646L1.10323 12.6339H2.97581H4.84839L4.82903 13.0598ZM18.3581 12.8904C18.45 13.5969 17.9855 14.371 17.2742 14.7098C17.0371 14.821 16.95 14.8356 16.5 14.8356C16.0355 14.8356 15.9677 14.821 15.7065 14.6952C15.0242 14.3565 14.6129 13.6598 14.6129 12.8469V12.6339H16.471H18.329L18.3581 12.8904ZM22.8774 13.0646C22.8629 13.4227 22.8339 13.5436 22.7032 13.8049C22.5194 14.1872 22.171 14.5259 21.7839 14.7049C21.5419 14.821 21.45 14.8356 21.0242 14.8356C20.5839 14.8356 20.5113 14.821 20.2258 14.6856C19.5194 14.3469 19.1226 13.6549 19.1129 12.7646V12.6339H21.0048H22.8968L22.8774 13.0646ZM10.7419 12.842C11.3952 12.9872 12.6048 12.9872 13.2581 12.842C13.5097 12.7839 13.7613 12.7259 13.8097 12.7017C13.8968 12.6678 13.9016 12.6872 13.8726 13.0259C13.8097 13.8969 13.3258 14.5356 12.5419 14.7872C12.1645 14.913 11.5645 14.8694 11.2161 14.7001C10.5629 14.3807 10.1758 13.8001 10.1274 13.0694C10.0984 12.6872 10.1032 12.6678 10.1903 12.7017C10.2387 12.7259 10.4903 12.7839 10.7419 12.842ZM5.37097 14.5452C5.52581 14.7969 5.97097 15.1694 6.31936 15.3436C6.65323 15.5081 7.16129 15.6339 7.5 15.6339C8.27903 15.6339 9.14032 15.1888 9.63387 14.5307L9.75484 14.3759L9.93387 14.6178C10.379 15.2178 11.2258 15.6339 12 15.6339C12.779 15.6339 13.6403 15.1888 14.1387 14.5307L14.2597 14.3662L14.4435 14.6178C14.8742 15.2033 15.7452 15.6339 16.5 15.6339C16.8387 15.6339 17.3468 15.5081 17.6806 15.3436C18.029 15.1694 18.4742 14.7969 18.629 14.5501L18.7306 14.3856L19.1274 14.7823C19.6694 15.3291 20.1484 15.5614 20.8548 15.6194C21.1935 15.6436 21.721 15.5565 22.079 15.4162C22.1516 15.3823 22.1613 15.421 22.1613 15.8469V16.3114H12H1.83871V15.8517C1.83871 15.6001 1.84839 15.392 1.85323 15.392C1.8629 15.392 1.99839 15.4404 2.15806 15.4936C2.37581 15.5759 2.55968 15.6001 2.95161 15.6049C3.54677 15.6098 3.92419 15.5033 4.38871 15.2033C4.65968 15.0291 5.17742 14.5114 5.17742 14.4194C5.17742 14.3227 5.26935 14.3856 5.37097 14.5452ZM8.6129 19.1178V21.1985H5.22581H1.83871V19.1517C1.83871 18.0243 1.85323 17.0856 1.87258 17.071C1.8871 17.0517 3.41129 17.0372 5.25968 17.0372H8.6129V19.1178ZM14.6129 20.6178V24.1985H12H9.3871V20.6178V17.0372H12H14.6129V20.6178ZM8.6129 23.0856V24.1985H5.22581H1.83871V23.0856V21.9727H5.22581H8.6129V23.0856ZM22.1613 23.0856V24.1985H18.7742H15.3871V23.0856V21.9727H18.7742H22.1613V23.0856Z" fill="#E4F2F6"/>
<path d="M3.0968 18.2955V18.6826H3.4597H3.82261V18.2955V17.9084H3.4597H3.0968V18.2955Z" fill="#E4F2F6"/>
<path d="M4.5968 18.2955V18.6826H4.9597H5.32261V18.2955V17.9084H4.9597H4.5968V18.2955Z" fill="#E4F2F6"/>
<path d="M6.0968 18.2955V18.6826H6.4597H6.82261V18.2955V17.9084H6.4597H6.0968V18.2955Z" fill="#E4F2F6"/>
<path d="M10.8871 20.4482V21.1982H11.25H11.6129V20.4482V19.6982H11.25H10.8871V20.4482Z" fill="#E4F2F6"/>
<path d="M12.3871 20.4482V21.1982H12.75H13.1129V20.4482V19.6982H12.75H12.3871V20.4482Z" fill="#E4F2F6"/>
</svg>
