<svg width="22" height="20" viewBox="0 0 22 20" fill="none" xmlns="http://www.w3.org/2000/svg">
<path fill-rule="evenodd" clip-rule="evenodd" d="M16.8572 18.4171C18.7302 18.4171 20.2492 16.8991 20.2502 15.0261V15.0241V12.3241C19.0132 12.3241 18.0112 11.3221 18.0102 10.0851C18.0102 8.84912 19.0122 7.84612 20.2492 7.84612H20.2502V5.14612C20.2522 3.27212 18.7352 1.75212 16.8622 1.75012H16.8562H5.14424C3.27024 1.75012 1.75124 3.26812 1.75024 5.14212V5.14312V7.93312C2.94424 7.89112 3.94524 8.82512 3.98724 10.0191C3.98824 10.0411 3.98924 10.0631 3.98924 10.0851C3.99024 11.3201 2.99124 12.3221 1.75624 12.3241H1.75024V15.0241C1.74924 16.8971 3.26824 18.4171 5.14124 18.4171H5.14224H16.8572Z" stroke="#E4F2F6" stroke-width="2" stroke-linecap="round" stroke-linejoin="round"/>
<path fill-rule="evenodd" clip-rule="evenodd" d="M11.3713 7.06315L11.9873 8.31015C12.0473 8.43215 12.1633 8.51715 12.2983 8.53715L13.6753 8.73815C14.0163 8.78815 14.1513 9.20615 13.9053 9.44515L12.9093 10.4152C12.8113 10.5102 12.7673 10.6472 12.7893 10.7822L13.0243 12.1522C13.0823 12.4912 12.7273 12.7492 12.4233 12.5892L11.1923 11.9422C11.0713 11.8782 10.9273 11.8782 10.8063 11.9422L9.57634 12.5892C9.27134 12.7492 8.91634 12.4912 8.97434 12.1522L9.20934 10.7822C9.23234 10.6472 9.18734 10.5102 9.08934 10.4152L8.09434 9.44515C7.84834 9.20615 7.98334 8.78815 8.32334 8.73815L9.70034 8.53715C9.83534 8.51715 9.95234 8.43215 10.0123 8.31015L10.6273 7.06315C10.7793 6.75515 11.2193 6.75515 11.3713 7.06315Z" stroke="#E4F2F6" stroke-width="2" stroke-linecap="round" stroke-linejoin="round"/>
</svg>
