<svg width="24" height="26" viewBox="0 0 24 26" fill="none" xmlns="http://www.w3.org/2000/svg">
<path d="M19.215 1.03651C18.9695 1.11668 18.5486 1.54758 18.4735 1.80311C18.4284 1.95844 18.4134 3.20603 18.4134 6.89873V11.7839L18.238 11.814C18.0225 11.8541 17.767 12.0645 17.6818 12.2799C17.6267 12.4052 17.6117 12.8461 17.6117 14.3242V16.2031L9.38455 16.2131L1.1524 16.2282L0.901879 16.3534C0.581211 16.5087 0.280585 16.8094 0.125261 17.13L0 17.3806V19.8106V22.2407L0.125261 22.4912C0.405846 23.0574 0.886848 23.363 1.56827 23.4081L1.97912 23.4332V24.1046C1.97912 24.7509 1.98413 24.781 2.10438 24.8962L2.22463 25.0215H3.78288H5.34113L5.46138 24.8962C5.58163 24.781 5.58664 24.7509 5.58664 24.0946V23.4181H12H18.4134V24.0946C18.4134 24.7509 18.4184 24.781 18.5386 24.8962L18.6589 25.0215H20.2171H21.7754L21.8956 24.8962C22.0159 24.781 22.0209 24.7509 22.0209 24.1046V23.4332L22.4367 23.4081C23.1132 23.363 23.5942 23.0574 23.8747 22.4912L24 22.2407V19.8106V17.3806L23.8747 17.13C23.7144 16.8094 23.4138 16.5087 23.0981 16.3584C22.8877 16.2532 22.7474 16.2332 22.2363 16.2131L21.6251 16.1931L21.61 14.249L21.595 12.305L21.4397 12.1096C21.3344 11.9793 21.2142 11.8941 21.0539 11.844L20.8184 11.7689V6.88871C20.8184 3.26616 20.8033 1.95844 20.7582 1.81313C20.6731 1.51752 20.3173 1.14674 20.0317 1.05155C19.7662 0.961359 19.4706 0.956348 19.215 1.03651ZM19.8914 1.89831L20.0167 2.01856V6.90875V11.7939H19.6159H19.215V6.90875V2.01856L19.3403 1.89831C19.4154 1.81814 19.5207 1.77305 19.6159 1.77305C19.7111 1.77305 19.8163 1.81814 19.8914 1.89831ZM20.8184 14.3994V16.2031H19.6159H18.4134V14.3994V12.5956H19.6159H20.8184V14.3994ZM22.8526 17.1351C22.9278 17.1902 23.038 17.3004 23.0931 17.3756C23.1983 17.5108 23.1983 17.566 23.1983 19.8106C23.1983 22.0553 23.1983 22.1104 23.0931 22.2457C23.038 22.3209 22.9278 22.4311 22.8526 22.4862L22.7173 22.5914H12H1.28267L1.14739 22.4862C1.07223 22.4311 0.962004 22.3209 0.906889 22.2457C0.806681 22.1104 0.80167 22.0403 0.786639 19.9459C0.776618 18.7534 0.786639 17.7113 0.80167 17.6211C0.836743 17.4206 1.04718 17.1651 1.25261 17.0749C1.37787 17.0198 3.27683 17.0098 12.0601 17.0198L22.7173 17.0298L22.8526 17.1351ZM4.78497 23.819V24.2198H3.78288H2.78079V23.819V23.4181H3.78288H4.78497V23.819ZM21.2192 23.819V24.2198H20.2171H19.215V23.819V23.4181H20.2171H21.2192V23.819Z" fill="#E4F2F6"/>
<path d="M3.18158 17.8714C2.93607 17.9515 2.51519 18.3824 2.44004 18.638C2.29975 19.1089 2.39995 19.4847 2.7557 19.8355C3.26175 20.3465 3.90309 20.3465 4.40914 19.8355C4.92021 19.3294 4.92021 18.6881 4.40914 18.182C4.05841 17.8263 3.64755 17.7261 3.18158 17.8714ZM3.85799 18.7332C3.93816 18.8083 3.98325 18.9135 3.98325 19.0087C3.98325 19.1039 3.93816 19.2091 3.85799 19.2843C3.78284 19.3645 3.67762 19.4096 3.58242 19.4096C3.48722 19.4096 3.382 19.3645 3.30684 19.2843C3.22668 19.2091 3.18158 19.1039 3.18158 19.0087C3.18158 18.9135 3.22668 18.8083 3.30684 18.7332C3.382 18.653 3.48722 18.6079 3.58242 18.6079C3.67762 18.6079 3.78284 18.653 3.85799 18.7332Z" fill="#E4F2F6"/>
<path d="M6.38825 17.8715C6.14274 17.9516 5.72186 18.3825 5.6467 18.638C5.50641 19.109 5.60662 19.4848 5.96236 19.8355C6.47343 20.3516 7.1799 20.3416 7.65589 19.8105C8.11184 19.3044 8.10182 18.633 7.62583 18.1671C7.29013 17.8414 6.83418 17.7312 6.38825 17.8715ZM7.06466 18.7332C7.31518 18.9788 7.13981 19.4097 6.78908 19.4097C6.69388 19.4097 6.58867 19.3646 6.51351 19.2844C6.43334 19.2092 6.38825 19.104 6.38825 19.0088C6.38825 18.9136 6.43334 18.8084 6.51351 18.7332C6.58867 18.6531 6.69388 18.608 6.78908 18.608C6.88428 18.608 6.9895 18.6531 7.06466 18.7332Z" fill="#E4F2F6"/>
<path d="M9.59504 17.8715C9.34952 17.9516 8.92865 18.3825 8.85349 18.638C8.7132 19.109 8.81341 19.4848 9.16915 19.8355C9.68021 20.3516 10.3867 20.3416 10.8627 19.8105C11.3136 19.3094 11.3136 18.7082 10.8627 18.2072C10.537 17.8464 10.071 17.7211 9.59504 17.8715ZM10.2714 18.7332C10.522 18.9788 10.3466 19.4097 9.99587 19.4097C9.90067 19.4097 9.79545 19.3646 9.7203 19.2844C9.64013 19.2092 9.59504 19.104 9.59504 19.0088C9.59504 18.9136 9.64013 18.8084 9.7203 18.7332C9.79545 18.6531 9.90067 18.608 9.99587 18.608C10.0911 18.608 10.1963 18.6531 10.2714 18.7332Z" fill="#E4F2F6"/>
<path d="M12.1453 18.7037C12.0551 18.7738 12.025 18.849 12.025 19.0093C12.025 19.1697 12.0551 19.2448 12.1453 19.315C12.2555 19.4051 12.3707 19.4102 14.2046 19.4102C16.0384 19.4102 16.1536 19.4051 16.2639 19.315C16.4292 19.1797 16.4292 18.839 16.2639 18.7037C16.1536 18.6135 16.0384 18.6085 14.2046 18.6085C12.3707 18.6085 12.2555 18.6135 12.1453 18.7037Z" fill="#E4F2F6"/>
<path d="M17.5565 18.7037C17.4663 18.7738 17.4363 18.849 17.4363 19.0093C17.4363 19.3601 17.5465 19.4102 18.3131 19.4102C19.0797 19.4102 19.1899 19.3601 19.1899 19.0093C19.1899 18.6586 19.0797 18.6085 18.3131 18.6085C17.762 18.6085 17.6567 18.6235 17.5565 18.7037Z" fill="#E4F2F6"/>
<path d="M7.56572 5.53635C5.92731 5.62654 4.27887 6.14762 2.86593 7.01944C2.24463 7.40524 1.67344 7.84115 1.19244 8.30712C0.731482 8.74804 0.681377 8.8733 0.891816 9.11881C1.09223 9.34929 1.26259 9.30921 1.66342 8.93844C3.05131 7.66077 4.58952 6.86411 6.35319 6.50336C7.49557 6.26787 8.95862 6.26787 10.081 6.49835C11.8647 6.86912 13.3778 7.65576 14.7707 8.93844C15.1716 9.30921 15.3419 9.34929 15.5423 9.11881C15.7528 8.8733 15.7027 8.74804 15.2467 8.30712C13.2175 6.36307 10.4868 5.38102 7.56572 5.53635Z" fill="#E4F2F6"/>
<path d="M7.07476 8.11127C5.45137 8.37683 4.01338 9.07829 2.84595 10.1756C2.48018 10.5163 2.43509 10.6866 2.66056 10.9121C2.88102 11.1326 3.02632 11.0925 3.46724 10.6866C4.38415 9.8499 5.56661 9.23862 6.81421 8.96305C7.35534 8.8428 8.66808 8.81273 9.24428 8.90793C10.6622 9.13841 11.9299 9.74468 12.967 10.6866C13.2526 10.9472 13.3929 11.0424 13.4931 11.0424C13.7487 11.0424 13.9591 10.7418 13.8789 10.4962C13.8639 10.4361 13.6535 10.2207 13.413 10.0102C12.3457 9.0833 11.1332 8.47704 9.77037 8.18643C9.10899 8.04614 7.71609 8.00605 7.07476 8.11127Z" fill="#E4F2F6"/>
<path d="M7.46553 10.5962C6.41834 10.7465 5.29601 11.2926 4.5745 11.9941C4.25383 12.3047 4.21375 12.445 4.38411 12.6605C4.50436 12.8108 4.69976 12.8709 4.83505 12.7958C4.89016 12.7657 5.07054 12.6204 5.23588 12.4751C5.82711 11.944 6.72398 11.5281 7.54068 11.3979C8.82335 11.1924 10.3014 11.6384 11.2534 12.5202C11.3787 12.6354 11.529 12.7607 11.5891 12.7908C11.7344 12.8659 11.9298 12.8108 12.0501 12.6605C12.2204 12.445 12.1803 12.3047 11.8597 11.9941C10.7574 10.9169 9.03379 10.3707 7.46553 10.5962Z" fill="#E4F2F6"/>
<path d="M7.86636 13.0765C7.3102 13.1617 6.734 13.4272 6.3482 13.773C6.04757 14.0435 5.99747 14.1738 6.1077 14.3893C6.253 14.6698 6.50853 14.6748 6.8292 14.4043C7.67597 13.6928 8.7482 13.6928 9.60498 14.4043C9.92565 14.6748 10.1812 14.6698 10.3265 14.3893C10.4367 14.1738 10.3866 14.0435 10.086 13.773C9.79538 13.5124 9.40457 13.297 9.00373 13.1767C8.71814 13.0966 8.11187 13.0414 7.86636 13.0765Z" fill="#E4F2F6"/>
</svg>
