<svg width="25" height="25" viewBox="0 0 25 25" fill="none" xmlns="http://www.w3.org/2000/svg">
<g opacity="0.4">
<path d="M16.6372 16.9302L16.6375 16.9299C16.9661 16.6034 17.3006 16.4731 17.6013 16.4731C17.902 16.4731 18.238 16.6035 18.5694 16.9304C19.5585 17.9143 20.5465 18.8972 21.5291 19.8849C21.8675 20.2255 21.9993 20.5647 21.998 20.8677C21.9967 21.1716 21.8613 21.5154 21.5181 21.8631C21.3406 22.0423 21.1518 22.2258 20.9592 22.4132C20.5752 22.7865 20.1755 23.175 19.8175 23.5751L19.817 23.5757C19.1699 24.301 18.3696 24.5475 17.3749 24.4918L17.3742 24.4917C15.8573 24.4088 14.4447 23.9058 13.0442 23.2259C9.93421 21.7139 7.2759 19.6193 5.04624 16.968L5.04605 16.9678C3.39094 15.002 2.03681 12.8707 1.14968 10.4815L1.14968 10.4815L1.14902 10.4797C0.714411 9.32252 0.426331 8.18537 0.516544 7.00156C0.570013 6.32112 0.817351 5.76224 1.30439 5.30106L1.30514 5.30035C1.68685 4.93741 2.06539 4.55514 2.43789 4.17897C2.68147 3.93299 2.92246 3.68962 3.16007 3.45598L3.16076 3.45529C3.48896 3.1313 3.82403 3.00107 4.12632 3.00064C4.4288 3.00021 4.76535 3.12967 5.09626 3.452C5.42861 3.77751 5.75437 4.10555 6.08296 4.43643C6.2484 4.60302 6.41455 4.77034 6.58262 4.93842C6.82361 5.182 7.06446 5.42285 7.30421 5.66259L7.30605 5.66443C7.54702 5.90541 7.78688 6.14528 8.02657 6.38757L8.02741 6.38842C8.38411 6.74727 8.51931 7.08956 8.51973 7.38769C8.52015 7.68559 8.38614 8.02601 8.03263 8.38172L8.03223 8.38213C7.94418 8.47092 7.8564 8.55957 7.76878 8.64803C7.2512 9.17067 6.73971 9.68715 6.21681 10.1924L6.21676 10.1924L6.21072 10.1984C6.09131 10.3178 5.97214 10.4786 5.93397 10.6949C5.89646 10.9075 5.95172 11.0938 6.01008 11.2325C6.44401 12.2652 7.06004 13.1713 7.73533 14.0009L7.73558 14.0013C9.08591 15.6575 10.6219 17.1434 12.4661 18.3035L12.4684 18.3049C12.6817 18.4375 12.9019 18.5499 13.108 18.652C13.1534 18.6745 13.1977 18.6963 13.2413 18.7177C13.401 18.7962 13.55 18.8695 13.697 18.9496C13.8589 19.0402 14.0672 19.1101 14.3046 19.0626C14.5306 19.0174 14.6937 18.8823 14.8056 18.7668L14.4466 18.4188L14.8046 18.7679C15.4051 18.152 16.0163 17.5459 16.631 16.9363L16.6372 16.9302Z" fill="#E4F2F6" stroke="#E4F2F6"/>
<path d="M18.8171 11.5605C18.584 10.2036 17.9471 8.97097 16.9734 7.9974C15.9428 6.96675 14.6377 6.31938 13.2031 6.1174" stroke="#E4F2F6" stroke-width="2" stroke-linecap="round" stroke-linejoin="bevel"/>
<path d="M24.0008 11.667C23.558 9.00808 22.3477 6.59265 20.4978 4.68469C18.5397 2.66509 16.0601 1.3965 13.3345 1.0007" stroke="#E4F2F6" stroke-width="2" stroke-linecap="round" stroke-linejoin="bevel"/>
</g>
</svg>
