<svg width="24" height="24" viewBox="0 0 24 24" fill="none" xmlns="http://www.w3.org/2000/svg">
<mask id="path-1-inside-1_4282_15298" fill="white">
<path d="M23.7584 17.9853C20.3179 17.4189 18.7771 13.9041 18.7135 13.7541L18.7063 13.7409C18.6085 13.5811 18.5469 13.4018 18.5257 13.2156C18.5046 13.0295 18.5244 12.841 18.5839 12.6633C18.8143 12.1185 19.5799 11.8761 20.0851 11.7153C20.2123 11.6757 20.3311 11.6373 20.4247 11.6001C21.3403 11.2401 21.5263 10.8645 21.5215 10.6137C21.4975 10.4577 21.4276 10.3125 21.3208 10.1965C21.2139 10.0804 21.0749 9.99881 20.9215 9.96204L20.9131 9.95964C20.7774 9.90475 20.6323 9.87664 20.4859 9.87684C20.3567 9.87498 20.2287 9.90076 20.1103 9.95245C19.753 10.1331 19.3636 10.2416 18.9643 10.2716C18.7338 10.277 18.5088 10.2015 18.3283 10.058L18.3667 9.42204L18.3715 9.34404C18.6027 7.7271 18.5047 6.08011 18.0835 4.50197C17.5866 3.36877 16.7668 2.40706 15.7266 1.73693C14.6864 1.0668 13.4719 0.717941 12.2346 0.733924L11.7522 0.739924C10.5171 0.724755 9.30488 1.07368 8.26685 1.74315C7.22882 2.41262 6.41095 3.37298 5.91532 4.50437C5.49355 6.08075 5.39477 7.72612 5.62492 9.34164C5.64092 9.58084 5.65532 9.82004 5.66812 10.0592C5.46913 10.215 5.21933 10.2911 4.96731 10.2728C4.54326 10.2546 4.12817 10.1449 3.75049 9.95124C3.65798 9.91033 3.55761 9.89026 3.45649 9.89244C3.24802 9.88445 3.04226 9.94179 2.86798 10.0565C2.6937 10.1712 2.55962 10.3374 2.48448 10.5321C2.38607 11.0481 3.12288 11.4237 3.57169 11.6001C3.66769 11.6385 3.78529 11.6757 3.91129 11.7153C4.4177 11.8761 5.18331 12.1185 5.41371 12.6633C5.473 12.841 5.49277 13.0295 5.47163 13.2156C5.45048 13.4017 5.38895 13.581 5.29131 13.7409L5.28411 13.7541C4.95267 14.4764 4.52079 15.1483 4.0013 15.7497C3.05749 16.9231 1.72221 17.7169 0.240446 17.9853C0.170533 17.9971 0.107393 18.0341 0.0631109 18.0895C0.0188289 18.1448 -0.0034842 18.2146 0.000442523 18.2854C0.00314871 18.3391 0.0153366 18.3919 0.036443 18.4414C0.248846 18.9346 1.30726 19.3414 3.10008 19.6186C3.26809 19.645 3.33769 19.9186 3.43609 20.365C3.47449 20.545 3.51529 20.731 3.57169 20.923C3.59043 21.0081 3.64009 21.0831 3.71103 21.1337C3.78198 21.1842 3.86917 21.2067 3.95569 21.1966C4.12705 21.1873 4.29729 21.1632 4.4645 21.1246C4.90615 21.0281 5.35649 20.9771 5.80852 20.9722C6.13381 20.9728 6.4585 21.0001 6.77933 21.0538C7.45615 21.2252 8.08572 21.5468 8.62136 21.9946C9.52545 22.7667 10.6617 23.2144 11.8494 23.2666C11.889 23.2666 11.9298 23.2654 11.9694 23.2618C12.0174 23.2642 12.0834 23.2666 12.1506 23.2666C13.3391 23.2144 14.4761 22.7667 15.381 21.9946C15.9159 21.5469 16.5446 21.2254 17.2207 21.0538C17.5411 21.0002 17.8654 20.9729 18.1903 20.9722C18.642 20.9744 19.0922 21.0223 19.5343 21.115C19.7021 21.1514 19.8727 21.1727 20.0443 21.1786H20.0731C20.1541 21.185 20.2347 21.1618 20.2998 21.1132C20.3649 21.0647 20.4102 20.9941 20.4271 20.9146C20.4794 20.7315 20.5251 20.5466 20.5639 20.3602C20.6611 19.915 20.7319 19.6426 20.8999 19.6162C22.6927 19.3402 23.7523 18.9322 23.9612 18.4426C23.983 18.3932 23.996 18.3404 23.9996 18.2866C24.0035 18.2158 23.9812 18.146 23.9369 18.0907C23.8926 18.0353 23.8295 17.9983 23.7596 17.9865L23.7584 17.9853Z"/>
</mask>
<path d="M23.7584 17.9853C20.3179 17.4189 18.7771 13.9041 18.7135 13.7541L18.7063 13.7409C18.6085 13.5811 18.5469 13.4018 18.5257 13.2156C18.5046 13.0295 18.5244 12.841 18.5839 12.6633C18.8143 12.1185 19.5799 11.8761 20.0851 11.7153C20.2123 11.6757 20.3311 11.6373 20.4247 11.6001C21.3403 11.2401 21.5263 10.8645 21.5215 10.6137C21.4975 10.4577 21.4276 10.3125 21.3208 10.1965C21.2139 10.0804 21.0749 9.99881 20.9215 9.96204L20.9131 9.95964C20.7774 9.90475 20.6323 9.87664 20.4859 9.87684C20.3567 9.87498 20.2287 9.90076 20.1103 9.95245C19.753 10.1331 19.3636 10.2416 18.9643 10.2716C18.7338 10.277 18.5088 10.2015 18.3283 10.058L18.3667 9.42204L18.3715 9.34404C18.6027 7.7271 18.5047 6.08011 18.0835 4.50197C17.5866 3.36877 16.7668 2.40706 15.7266 1.73693C14.6864 1.0668 13.4719 0.717941 12.2346 0.733924L11.7522 0.739924C10.5171 0.724755 9.30488 1.07368 8.26685 1.74315C7.22882 2.41262 6.41095 3.37298 5.91532 4.50437C5.49355 6.08075 5.39477 7.72612 5.62492 9.34164C5.64092 9.58084 5.65532 9.82004 5.66812 10.0592C5.46913 10.215 5.21933 10.2911 4.96731 10.2728C4.54326 10.2546 4.12817 10.1449 3.75049 9.95124C3.65798 9.91033 3.55761 9.89026 3.45649 9.89244C3.24802 9.88445 3.04226 9.94179 2.86798 10.0565C2.6937 10.1712 2.55962 10.3374 2.48448 10.5321C2.38607 11.0481 3.12288 11.4237 3.57169 11.6001C3.66769 11.6385 3.78529 11.6757 3.91129 11.7153C4.4177 11.8761 5.18331 12.1185 5.41371 12.6633C5.473 12.841 5.49277 13.0295 5.47163 13.2156C5.45048 13.4017 5.38895 13.581 5.29131 13.7409L5.28411 13.7541C4.95267 14.4764 4.52079 15.1483 4.0013 15.7497C3.05749 16.9231 1.72221 17.7169 0.240446 17.9853C0.170533 17.9971 0.107393 18.0341 0.0631109 18.0895C0.0188289 18.1448 -0.0034842 18.2146 0.000442523 18.2854C0.00314871 18.3391 0.0153366 18.3919 0.036443 18.4414C0.248846 18.9346 1.30726 19.3414 3.10008 19.6186C3.26809 19.645 3.33769 19.9186 3.43609 20.365C3.47449 20.545 3.51529 20.731 3.57169 20.923C3.59043 21.0081 3.64009 21.0831 3.71103 21.1337C3.78198 21.1842 3.86917 21.2067 3.95569 21.1966C4.12705 21.1873 4.29729 21.1632 4.4645 21.1246C4.90615 21.0281 5.35649 20.9771 5.80852 20.9722C6.13381 20.9728 6.4585 21.0001 6.77933 21.0538C7.45615 21.2252 8.08572 21.5468 8.62136 21.9946C9.52545 22.7667 10.6617 23.2144 11.8494 23.2666C11.889 23.2666 11.9298 23.2654 11.9694 23.2618C12.0174 23.2642 12.0834 23.2666 12.1506 23.2666C13.3391 23.2144 14.4761 22.7667 15.381 21.9946C15.9159 21.5469 16.5446 21.2254 17.2207 21.0538C17.5411 21.0002 17.8654 20.9729 18.1903 20.9722C18.642 20.9744 19.0922 21.0223 19.5343 21.115C19.7021 21.1514 19.8727 21.1727 20.0443 21.1786H20.0731C20.1541 21.185 20.2347 21.1618 20.2998 21.1132C20.3649 21.0647 20.4102 20.9941 20.4271 20.9146C20.4794 20.7315 20.5251 20.5466 20.5639 20.3602C20.6611 19.915 20.7319 19.6426 20.8999 19.6162C22.6927 19.3402 23.7523 18.9322 23.9612 18.4426C23.983 18.3932 23.996 18.3404 23.9996 18.2866C24.0035 18.2158 23.9812 18.146 23.9369 18.0907C23.8926 18.0353 23.8295 17.9983 23.7596 17.9865L23.7584 17.9853Z" fill="#E4F2F6"/>
<path d="M23.7584 17.9853L95.6898 -53.8091L72.566 -76.977L40.2676 -82.2944L23.7584 17.9853ZM18.7135 13.7541L112.28 -25.9181L110.328 -30.5223L107.933 -34.9125L18.7135 13.7541ZM18.7063 13.7409L107.926 -34.9257L106.715 -37.1456L105.395 -39.3024L18.7063 13.7409ZM18.5839 12.6633L-75.0193 -26.9222L-76.5479 -23.3078L-77.7932 -19.5863L18.5839 12.6633ZM20.0851 11.7153L-10.1242 -85.3207L-10.4318 -85.2249L-10.7389 -85.1272L20.0851 11.7153ZM20.4247 11.6001L-16.7632 -82.9813L-16.9371 -82.9129L-17.1107 -82.8439L20.4247 11.6001ZM21.5215 10.6137L123.133 8.66894L123.002 1.86721L121.967 -4.85648L21.5215 10.6137ZM20.9215 9.96204L-6.99653 107.682L-4.89234 108.283L-2.76423 108.793L20.9215 9.96204ZM20.9131 9.95964L-17.1891 104.176L-12.1899 106.198L-7.00493 107.679L20.9131 9.95964ZM20.4859 9.87684L19.0199 111.496L19.8244 111.507L20.6291 111.506L20.4859 9.87684ZM20.1103 9.95245L-20.5562 -83.1862L-23.1826 -82.0395L-25.7402 -80.7465L20.1103 9.95245ZM18.9643 10.2716L21.3452 111.873L23.9778 111.812L26.6037 111.614L18.9643 10.2716ZM18.3283 10.058L-83.1166 3.93315L-86.3039 56.7235L-44.8982 89.6256L18.3283 10.058ZM18.3667 9.42204L-83.0711 3.18013L-83.0747 3.23863L-83.0782 3.29714L18.3667 9.42204ZM18.3715 9.34404L-82.235 -5.04049L-82.8147 -0.985931L-83.0663 3.10213L18.3715 9.34404ZM18.0835 4.50197L116.275 -21.707L114.274 -29.2048L111.158 -36.3118L18.0835 4.50197ZM12.2346 0.733924L13.4985 102.356L13.5229 102.355L13.5473 102.355L12.2346 0.733924ZM11.7522 0.739924L10.5042 102.362L11.7601 102.377L13.0161 102.362L11.7522 0.739924ZM5.91532 4.50437L-87.1737 -36.2756L-90.2679 -29.2125L-92.2609 -21.7635L5.91532 4.50437ZM5.62492 9.34164L107.028 2.55883L106.774 -1.23131L106.239 -4.99195L5.62492 9.34164ZM5.66812 10.0592L68.3072 90.09L109.98 57.473L107.153 4.62864L5.66812 10.0592ZM4.96731 10.2728L12.3184 -91.0905L10.8257 -91.1988L9.33052 -91.2631L4.96731 10.2728ZM3.75049 9.95124L50.1245 -80.4812L47.5269 -81.8133L44.8571 -82.994L3.75049 9.95124ZM3.45649 9.89244L-0.439857 111.447L2.60576 111.564L5.6529 111.498L3.45649 9.89244ZM2.48448 10.5321L-92.3242 -26.0725L-95.6279 -17.5156L-97.3461 -8.50541L2.48448 10.5321ZM3.57169 11.6001L41.316 -82.7607L41.0326 -82.874L40.7484 -82.9857L3.57169 11.6001ZM3.91129 11.7153L34.6689 -85.1483L34.5258 -85.1937L34.3826 -85.2387L3.91129 11.7153ZM5.41371 12.6633L101.819 -19.5025L100.563 -23.2671L99.0169 -26.9222L5.41371 12.6633ZM5.29131 13.7409L-81.4438 -39.227L-82.7395 -37.1053L-83.9299 -34.9228L5.29131 13.7409ZM5.28411 13.7541L-83.9371 -34.9096L-85.6199 -31.8242L-87.0856 -28.63L5.28411 13.7541ZM4.0013 15.7497L-72.91 -50.6824L-74.0745 -49.3342L-75.1911 -47.946L4.0013 15.7497ZM0.240446 17.9853L17.0227 118.22L17.6909 118.108L18.3576 117.987L0.240446 17.9853ZM0.000442523 18.2854L101.501 13.1719L101.488 12.9137L101.474 12.6556L0.000442523 18.2854ZM0.036443 18.4414L-93.441 58.3229L-93.3734 58.4814L-93.3053 58.6396L0.036443 18.4414ZM3.10008 19.6186L18.8768 -80.779L18.7531 -80.7984L18.6294 -80.8176L3.10008 19.6186ZM3.43609 20.365L102.829 -0.838866L102.757 -1.17571L102.683 -1.51205L3.43609 20.365ZM3.57169 20.923L102.821 -0.941873L102.068 -4.36114L101.081 -7.72047L3.57169 20.923ZM3.95569 21.1966L-1.56082 -80.2832L-4.68328 -80.1134L-7.78939 -79.7521L3.95569 21.1966ZM4.4645 21.1246L-17.2182 -78.1651L-17.8061 -78.0367L-18.3924 -77.9014L4.4645 21.1246ZM5.80852 20.9722L5.99411 -80.6572L5.35157 -80.6584L4.70906 -80.6515L5.80852 20.9722ZM6.77933 21.0538L31.7307 -77.4653L27.6813 -78.4909L23.5613 -79.1806L6.77933 21.0538ZM8.62136 21.9946L74.6185 -55.2903L74.2162 -55.6338L73.8104 -55.9731L8.62136 21.9946ZM11.8494 23.2666L7.38358 124.798L9.61541 124.896H11.8494V23.2666ZM11.9694 23.2618L17.0445 -78.241L9.89618 -78.5984L2.76829 -77.9504L11.9694 23.2618ZM12.1506 23.2666V124.896H14.3801L16.6075 124.798L12.1506 23.2666ZM15.381 21.9946L-49.8492 -55.9387L-50.2179 -55.63L-50.5837 -55.3179L15.381 21.9946ZM17.2207 21.0538L0.469924 -79.1859L-3.69244 -78.4903L-7.78281 -77.4521L17.2207 21.0538ZM18.1903 20.9722L18.6977 -80.6562L18.3249 -80.658L17.9521 -80.6571L18.1903 20.9722ZM19.5343 21.115L41.0925 -78.2018L40.7431 -78.2776L40.3931 -78.351L19.5343 21.115ZM20.0443 21.1786L16.5508 122.748L18.297 122.808H20.0443V21.1786ZM20.0731 21.1786L28.131 -80.1311L24.1084 -80.451H20.0731V21.1786ZM20.4271 20.9146L-77.2888 -7.01705L-78.2467 -3.66592L-78.9728 -0.25703L20.4271 20.9146ZM20.5639 20.3602L-78.7268 -1.31784L-78.8301 -0.84445L-78.929 -0.370094L20.5639 20.3602ZM20.8999 19.6162L5.4363 -80.8301L5.27969 -80.806L5.12316 -80.7814L20.8999 19.6162ZM23.9612 18.4426L-68.996 -22.6371L-69.263 -22.0329L-69.5222 -21.4253L23.9612 18.4426ZM23.9996 18.2866L125.404 25.0497L125.442 24.4832L125.473 23.9163L23.9996 18.2866ZM23.7596 17.9865L-48.1719 89.781L-25.1559 112.841L6.97734 118.221L23.7596 17.9865ZM40.2676 -82.2944C70.6612 -77.2906 89.1872 -59.7728 97.3978 -50.1154C105.652 -40.4066 110.053 -31.1708 112.28 -25.9181L-74.853 53.4263C-72.5623 58.829 -67.3593 69.8973 -57.4586 81.5425C-47.6015 93.1364 -26.5849 112.695 7.2491 118.265L40.2676 -82.2944ZM107.933 -34.9125L107.926 -34.9257L-70.5133 62.4075L-70.5061 62.4207L107.933 -34.9125ZM105.395 -39.3024C113.038 -26.8125 117.854 -12.802 119.506 1.74572L-82.4546 24.6856C-80.7599 39.6056 -75.8206 53.9747 -67.9827 66.7842L105.395 -39.3024ZM119.506 1.74572C121.158 16.2937 119.607 31.0274 114.961 44.9129L-77.7932 -19.5863C-82.5584 -5.34554 -84.1493 9.76524 -82.4546 24.6856L119.506 1.74572ZM112.187 52.2488C98.7634 83.9903 74.205 97.9671 66.4827 102.022C57.5644 106.706 49.3049 109.068 50.9091 108.558L-10.7389 -85.1272C-10.7427 -85.126 -10.7957 -85.1091 -10.8516 -85.0913C-10.9131 -85.0716 -11.0047 -85.0424 -11.1143 -85.0072C-11.3314 -84.9373 -11.6573 -84.8319 -12.0497 -84.702C-12.8229 -84.4461 -13.9975 -84.0482 -15.4103 -83.5286C-18.0621 -82.5534 -22.6351 -80.7597 -28.0198 -77.9319C-36.3088 -73.579 -61.3652 -59.2085 -75.0193 -26.9222L112.187 52.2488ZM50.2944 108.751C50.6045 108.655 51.473 108.384 52.5567 108.021C53.5703 107.681 55.5382 107.007 57.9601 106.044L-17.1107 -82.8439C-14.7823 -83.7693 -12.9207 -84.4058 -12.0216 -84.7071C-11.0526 -85.0318 -10.3071 -85.2637 -10.1242 -85.3207L50.2944 108.751ZM57.6127 106.181C69.4733 101.518 124.412 75.5202 123.133 8.66894L-80.0895 12.5584C-80.6487 -16.6583 -68.7283 -41.5572 -52.6636 -58.6138C-38.7595 -73.3763 -23.9935 -80.1385 -16.7632 -82.9813L57.6127 106.181ZM121.967 -4.85648C118.871 -24.9585 109.86 -43.6834 96.083 -58.6453L-53.4414 79.0383C-67.0048 64.3085 -75.8758 45.874 -78.9237 26.0838L121.967 -4.85648ZM96.083 -58.6453C82.306 -73.6071 64.3864 -84.1287 44.6073 -88.8689L-2.76423 108.793C-22.2365 104.126 -39.8782 93.7679 -53.4414 79.0383L96.083 -58.6453ZM48.8396 -87.7578L48.8312 -87.7602L-7.00493 107.679L-6.99653 107.682L48.8396 -87.7578ZM59.0153 -84.2571C46.7284 -89.2261 33.5963 -91.7713 20.3427 -91.7527L20.6291 111.506C7.66829 111.525 -5.17366 109.036 -17.1891 104.176L59.0153 -84.2571ZM21.952 -91.7422C7.3342 -91.9531 -7.15917 -89.0357 -20.5562 -83.1862L60.7768 103.091C47.6165 108.837 33.3793 111.703 19.0199 111.496L21.952 -91.7422ZM-25.7402 -80.7465C-14.1832 -86.5889 -1.58834 -90.097 11.3249 -91.0704L26.6037 111.614C40.3154 110.58 53.6892 106.855 65.9609 100.651L-25.7402 -80.7465ZM16.5833 -91.3301C40.1267 -91.8818 63.1177 -84.16 81.5548 -69.5095L-44.8982 89.6256C-26.1002 104.563 -2.65903 112.436 21.3452 111.873L16.5833 -91.3301ZM119.773 16.1829L119.812 15.5469L-83.0782 3.29714L-83.1166 3.93315L119.773 16.1829ZM119.804 15.6639L119.809 15.5859L-83.0663 3.10213L-83.0711 3.18013L119.804 15.6639ZM118.978 23.7286C121.147 8.55599 120.228 -6.89853 116.275 -21.707L-80.1085 30.7109C-83.2187 19.0587 -83.942 6.89821 -82.235 -5.04049L118.978 23.7286ZM111.158 -36.3118C102.642 -55.7323 88.5933 -72.2137 70.7669 -83.6981L-39.3136 87.172C-55.0597 77.0278 -67.4686 62.4698 -74.9908 45.3158L111.158 -36.3118ZM70.7669 -83.6981C52.9404 -95.1826 32.1257 -101.161 10.9219 -100.887L13.5473 102.355C-5.18194 102.597 -23.5675 97.3162 -39.3136 87.172L70.7669 -83.6981ZM10.9707 -100.888L10.4883 -100.882L13.0161 102.362L13.4985 102.356L10.9707 -100.888ZM13.0002 -100.882C-8.19682 -101.142 -29.0011 -95.154 -46.8161 -83.6644L63.3498 87.1507C47.6109 97.3014 29.231 102.592 10.5042 102.362L13.0002 -100.882ZM-46.8161 -83.6644C-64.631 -72.1748 -78.6675 -55.6928 -87.1737 -36.2756L99.0044 45.2843C91.4895 62.4388 79.0887 77 63.3498 87.1507L-46.8161 -83.6644ZM-92.2609 -21.7635C-96.2228 -6.95584 -97.1507 8.4999 -94.9888 23.6752L106.239 -4.99195C107.94 6.95234 107.21 19.1173 104.092 30.7723L-92.2609 -21.7635ZM-95.7781 16.1244C-95.7922 15.9136 -95.8049 15.702 -95.8163 15.4899L107.153 4.62864C107.116 3.93807 107.074 3.24812 107.028 2.55883L-95.7781 16.1244ZM-56.971 -69.9715C-37.2977 -85.3696 -12.5992 -92.8976 12.3184 -91.0905L-2.38382 111.636C23.0378 113.48 48.2359 105.8 68.3072 90.09L-56.971 -69.9715ZM9.33052 -91.2631C23.5469 -90.6521 37.4629 -86.9741 50.1245 -80.4812L-42.6235 100.384C-29.2066 107.264 -14.4604 111.161 0.604092 111.809L9.33052 -91.2631ZM44.8571 -82.994C31.1394 -89.0609 16.2557 -92.0376 1.26008 -91.7134L5.6529 111.498C-9.14048 111.818 -23.8234 108.882 -37.3561 102.897L44.8571 -82.994ZM7.35283 -91.6624C-14.0251 -92.4827 -35.1252 -86.6017 -52.997 -74.8416L58.733 94.9545C41.2097 106.485 20.5211 112.252 -0.439857 111.447L7.35283 -91.6624ZM-52.997 -74.8416C-70.8688 -63.0815 -84.6187 -46.0304 -92.3242 -26.0725L97.2931 47.1366C89.7379 66.7053 76.2562 83.4238 58.733 94.9545L-52.997 -74.8416ZM-97.3461 -8.50541C-108.514 50.0587 -68.2933 84.5169 -60.2482 90.8842C-48.3261 100.32 -37.0995 104.812 -33.6051 106.186L40.7484 -82.9857C43.7941 -81.7886 54.4279 -77.5721 65.894 -68.4973C73.483 -62.491 113.385 -28.4786 102.315 29.5695L-97.3461 -8.50541ZM-34.1726 105.961C-31.5363 107.015 -29.4051 107.739 -28.4077 108.072C-27.8403 108.261 -27.376 108.41 -27.0924 108.501C-26.8196 108.588 -26.5918 108.659 -26.56 108.669L34.3826 -85.2387C34.2243 -85.2885 34.9709 -85.0562 35.8682 -84.7571C36.7513 -84.4628 38.7757 -83.7768 41.316 -82.7607L-34.1726 105.961ZM-26.8463 108.579C-25.2751 109.078 -33.5336 106.721 -42.4655 102.033C-50.1994 97.9736 -74.7635 83.9957 -88.1895 52.2488L99.0169 -26.9222C85.3605 -59.214 60.2984 -73.5854 51.9976 -77.9423C46.6081 -80.771 42.0302 -82.5651 39.3718 -83.5417C37.9555 -84.062 36.7773 -84.4606 35.9992 -84.7177C35.6042 -84.8482 35.2758 -84.9543 35.0553 -85.025C34.8524 -85.0901 34.673 -85.147 34.6689 -85.1483L-26.8463 108.579ZM-90.9914 44.8291C-95.6161 30.9681 -97.1578 16.2644 -95.5087 1.7457L106.452 24.6855C108.143 9.79461 106.562 -5.28614 101.819 -19.5025L-90.9914 44.8291ZM-95.5087 1.7457C-93.8595 -12.7731 -89.0593 -26.7565 -81.4438 -39.227L92.0264 66.7088C99.8372 53.9186 104.76 39.5766 106.452 24.6855L-95.5087 1.7457ZM-83.9299 -34.9228L-83.9371 -34.9096L94.5053 62.4178L94.5125 62.4046L-83.9299 -34.9228ZM-87.0856 -28.63C-83.423 -36.612 -78.6506 -44.0363 -72.91 -50.6824L80.9126 82.1819C87.6922 74.3328 93.3284 65.5648 97.6538 56.1382L-87.0856 -28.63ZM-75.1911 -47.946C-60.8078 -65.8287 -40.4585 -77.9253 -17.8768 -82.0164L18.3576 117.987C43.9029 113.359 66.9227 99.675 83.1937 79.4454L-75.1911 -47.946ZM-16.5418 -82.249C-41.2824 -78.1067 -63.6261 -64.9857 -79.2963 -45.398L79.4225 81.577C63.8409 101.054 41.6235 114.101 17.0227 118.22L-16.5418 -82.249ZM-79.2963 -45.398C-94.9666 -25.8102 -102.863 -1.13123 -101.473 23.9151L101.474 12.6556C102.856 37.5604 95.0042 62.0999 79.4225 81.577L-79.2963 -45.398ZM-101.5 23.3988C-100.895 35.424 -98.1663 47.2475 -93.441 58.3229L93.5139 -21.4402C98.1969 -10.4638 100.901 1.25417 101.501 13.1719L-101.5 23.3988ZM-93.3053 58.6396C-83.299 81.8745 -67.4561 95.2747 -58.5808 101.592C-49.1741 108.287 -40.5628 112.024 -35.4795 113.977C-25.3615 117.865 -16.6571 119.401 -12.4292 120.055L18.6294 -80.8176C21.0644 -80.4411 28.3433 -79.2474 37.4307 -75.7553C41.9988 -73.9999 50.1936 -70.475 59.2861 -64.0031C67.8471 -57.9095 83.4781 -44.7452 93.3782 -21.7569L-93.3053 58.6396ZM-12.6767 120.016C-40.9292 115.576 -61.1652 100.494 -73.3871 86.4782C-84.0924 74.2019 -89.1771 62.3307 -91.143 57.3868C-93.3888 51.7391 -94.5991 47.1624 -95.0234 45.5227C-95.2949 44.4736 -95.4933 43.634 -95.6046 43.1539C-95.7159 42.6736 -95.7957 42.3113 -95.8109 42.242L102.683 -1.51205C102.651 -1.65886 102.284 -3.35148 101.755 -5.39527C101.285 -7.2126 100.028 -11.9431 97.7314 -17.7183C96.3273 -21.2492 77.6201 -71.5479 18.8768 -80.779L-12.6767 120.016ZM-95.9569 41.5688C-95.8992 41.8396 -95.1785 45.3433 -93.938 49.5664L101.081 -7.72047C101.682 -5.6741 102.11 -3.96934 102.385 -2.80653C102.645 -1.71312 102.825 -0.859806 102.829 -0.838866L-95.9569 41.5688ZM-95.678 42.7878C-90.2421 67.463 -75.8397 89.2414 -55.2621 103.903L62.6841 -61.6356C83.1198 -47.0751 97.4229 -25.4468 102.821 -0.941873L-95.678 42.7878ZM-55.2621 103.903C-34.6848 118.564 -9.39712 125.065 15.7008 122.145L-7.78939 -79.7521C17.1355 -82.652 42.2488 -76.1958 62.6841 -61.6356L-55.2621 103.903ZM9.47221 122.676C15.4833 122.35 21.4552 121.505 27.3214 120.151L-18.3924 -77.9014C-12.8607 -79.1782 -7.22921 -79.9751 -1.56082 -80.2832L9.47221 122.676ZM26.1472 120.414C19.8253 121.795 13.3788 122.526 6.90798 122.596L4.70906 -80.6515C-2.66577 -80.5717 -10.013 -79.7385 -17.2182 -78.1651L26.1472 120.414ZM5.62292 122.602C0.387051 122.592 -4.83901 122.153 -10.0026 121.288L23.5613 -79.1806C17.756 -80.1526 11.8806 -80.6465 5.99411 -80.6572L5.62292 122.602ZM-18.1721 119.573C-32.2798 116 -45.4027 109.297 -56.5677 99.9623L73.8104 -55.9731C61.5741 -66.2039 47.1921 -73.5494 31.7307 -77.4653L-18.1721 119.573ZM-57.3758 99.2795C-39.2383 114.768 -16.4444 123.75 7.38358 124.798L16.3152 -78.2648C37.7677 -77.3212 58.2892 -69.2346 74.6185 -55.2903L-57.3758 99.2795ZM11.8494 124.896C13.7738 124.896 17.0821 124.846 21.1705 124.474L2.76829 -77.9504C6.7775 -78.3149 10.0042 -78.363 11.8494 -78.363V124.896ZM6.89426 124.765C8.02639 124.821 9.87668 124.896 12.1506 124.896V-78.363C14.2901 -78.363 16.0084 -78.2928 17.0445 -78.241L6.89426 124.765ZM16.6075 124.798C40.4247 123.753 63.21 114.781 81.3458 99.3071L-50.5837 -55.3179C-34.2579 -69.2475 -13.7466 -77.3241 7.69371 -78.2652L16.6075 124.798ZM80.6113 99.9279C69.4506 109.269 56.3307 115.979 42.2242 119.56L-7.78281 -77.4521C-23.2414 -73.5283 -37.6188 -66.1755 -49.8492 -55.9387L80.6113 99.9279ZM33.9714 121.293C28.8349 122.152 23.6366 122.589 18.4285 122.602L17.9521 -80.6571C12.0942 -80.6434 6.24735 -80.1513 0.469924 -79.1859L33.9714 121.293ZM17.6828 122.601C11.2953 122.569 4.92722 121.892 -1.32452 120.581L40.3931 -78.351C33.2573 -79.8475 25.9886 -80.6198 18.6977 -80.6562L17.6828 122.601ZM-2.02388 120.432C4.08522 121.758 10.3017 122.533 16.5508 122.748L23.5378 -80.391C29.4438 -80.1878 35.3189 -79.455 41.0925 -78.2018L-2.02388 120.432ZM20.0443 122.808H20.0731V-80.451H20.0443V122.808ZM12.0152 122.488C36.6821 124.45 61.2206 117.375 81.0564 102.582L-40.4568 -60.3559C-20.7513 -75.0515 3.62607 -82.0801 28.131 -80.1311L12.0152 122.488ZM81.0564 102.582C100.894 87.7885 114.672 66.2865 119.827 42.0862L-78.9728 -0.25703C-73.8521 -24.2984 -60.1637 -45.6592 -40.4568 -60.3559L81.0564 102.582ZM118.143 48.8462C118.875 46.2853 119.513 43.6983 120.057 41.0905L-78.929 -0.370094C-78.4633 -2.60511 -77.9162 -4.82223 -77.2888 -7.01705L118.143 48.8462ZM119.855 42.0382C119.853 42.0471 119.523 43.5881 119.018 45.5362C118.574 47.2526 117.343 51.8855 115.058 57.5948C113.049 62.6148 107.918 74.4791 97.1687 86.725C84.9195 100.68 64.744 115.603 36.6767 120.014L5.12316 -80.7814C-53.2923 -71.6018 -72.1017 -21.795 -73.6476 -17.9325C-75.9835 -12.0962 -77.2605 -7.31006 -77.7508 -5.41653C-78.3011 -3.29132 -78.6762 -1.54934 -78.7268 -1.31784L119.855 42.0382ZM36.3635 120.062C40.633 119.405 49.3323 117.87 59.4408 113.991C64.5089 112.045 73.1216 108.316 82.534 101.624C91.3649 95.3459 107.408 81.8446 117.444 58.3104L-69.5222 -21.4253C-59.5899 -44.7146 -43.7578 -57.9814 -35.2403 -64.0367C-26.1413 -70.5056 -17.9447 -74.0242 -13.3918 -75.7717C-4.31348 -79.256 2.95963 -80.4488 5.4363 -80.8301L36.3635 120.062ZM116.918 59.5222C121.737 48.6175 124.61 36.9505 125.404 25.0497L-77.4048 11.5234C-76.6182 -0.269678 -73.7714 -11.8311 -68.996 -22.6371L116.918 59.5222ZM125.473 23.9163C126.863 -1.12958 118.967 -25.8086 103.296 -45.3968L-55.4225 81.5782C-71.0045 62.1007 -78.8557 37.5611 -77.474 12.6568L125.473 23.9163ZM103.296 -45.3968C87.6246 -64.9864 65.2801 -78.1059 40.5418 -82.2478L6.97734 118.221C-17.6212 114.102 -39.8394 101.057 -55.4225 81.5782L103.296 -45.3968ZM95.691 -53.8079L95.6898 -53.8091L-48.1731 89.7798L-48.1719 89.781L95.691 -53.8079Z" fill="#E4F2F6" mask="url(#path-1-inside-1_4282_15298)"/>
</svg>
