<svg width="15" height="14" viewBox="0 0 15 14" fill="none" xmlns="http://www.w3.org/2000/svg">
<path d="M4.28708 1.3422C4.06409 0.808292 3.89509 0.788073 3.55727 0.774339C3.42899 0.766076 3.3005 0.761623 3.17196 0.760986C2.73247 0.760986 2.27295 0.889361 1.9958 1.1732C1.65798 1.51788 0.819824 2.32208 0.819824 3.9713C0.819824 5.62052 2.02288 7.21557 2.18502 7.43874C2.35402 7.66154 4.53047 11.095 7.90979 12.4944C10.5524 13.5893 11.3366 13.4878 11.938 13.3594C12.8166 13.1702 13.9184 12.5211 14.1956 11.7373C14.4727 10.9531 14.4727 10.284 14.3915 10.142C14.3104 10.0001 14.0872 9.91925 13.7494 9.75006C13.4116 9.58105 11.769 8.76999 11.4581 8.66183C11.1539 8.547 10.8634 8.58763 10.6337 8.91209C10.3092 9.36493 9.99163 9.82464 9.73469 10.1016C9.53193 10.3179 9.20059 10.345 8.92363 10.23C8.55186 10.0747 7.51113 9.70943 6.22681 8.56722C5.2332 7.68195 4.55737 6.58037 4.36147 6.24923C4.16538 5.91141 4.34125 5.71513 4.49652 5.53278C4.66552 5.32314 4.82766 5.17455 4.99667 4.97846C5.16567 4.78256 5.26028 4.68108 5.36844 4.45123C5.48346 4.22824 5.4022 3.99839 5.32113 3.82938C5.24006 3.66038 4.56424 2.01116 4.28708 1.3422Z" fill="url(#paint0_linear_4282_15301)"/>
<defs>
<linearGradient id="paint0_linear_4282_15301" x1="7.62917" y1="0.760986" x2="7.62917" y2="13.4362" gradientUnits="userSpaceOnUse">
<stop stop-color="#252736"/>
<stop offset="1" stop-color="#010103"/>
</linearGradient>
</defs>
</svg>
