<svg width="26" height="20" viewBox="0 0 26 20" fill="none" xmlns="http://www.w3.org/2000/svg">
<g opacity="0.4">
<path d="M10.768 19.1075C5.81643 19.0164 4.12522 18.9344 3.0857 18.7202C2.3824 18.5779 1.77123 18.2619 1.3231 17.8037C0.976758 17.4568 0.701321 16.9277 0.487629 16.1935C0.304326 15.5819 0.232934 15.0729 0.131153 13.8299C-0.0246545 11.0244 -0.0617974 8.73067 0.131153 6.16781C0.290337 4.75252 0.367517 3.0724 1.42488 2.09221C1.92414 1.63347 2.50492 1.33826 3.1571 1.21622C4.17587 1.02279 8.51629 0.869873 13.0096 0.869873C17.4928 0.869873 21.8429 1.02279 22.8626 1.21622C23.6774 1.36913 24.4414 1.82739 24.8901 2.4183C25.8548 3.93585 25.8717 5.82291 25.9696 7.29898C26.0101 8.00228 26.0101 11.9959 25.9696 12.6992C25.8172 15.0319 25.6947 15.8573 25.3483 16.713C25.1341 17.2533 24.9513 17.5384 24.6349 17.8543C24.1386 18.3405 23.5059 18.6639 22.8211 18.7815C18.5362 19.1037 14.8976 19.1736 10.768 19.1075ZM17.3298 9.73401C14.9459 8.46006 12.6633 7.27872 10.33 6.05589V13.3716C12.7853 12.0369 15.3737 10.814 17.3399 9.72388L17.3298 9.73401Z" fill="#E4F2F6"/>
</g>
</svg>
